<svg xmlns="http://www.w3.org/2000/svg" width="20" height="23.529" viewBox="0 0 20 23.529">
  <path id="Notification" d="M18.807,8.662a4.572,4.572,0,0,0,1.25,3.352,3.955,3.955,0,0,1,.859,2.718,4.252,4.252,0,0,1-1.015,2.8,5.337,5.337,0,0,1-3.412,1.662c-1.849.158-3.7.29-5.573.29a48.992,48.992,0,0,1-5.573-.29A5.332,5.332,0,0,1,1.933,17.53a4.254,4.254,0,0,1-1.016-2.8,3.961,3.961,0,0,1,.859-2.718A4.468,4.468,0,0,0,3.027,8.662v-.5a6.621,6.621,0,0,1,1.51-4.539A8.322,8.322,0,0,1,10.865.667h.105A8.284,8.284,0,0,1,17.4,3.754a6.522,6.522,0,0,1,1.405,4.407ZM7.474,21.915c0-.592.544-.864,1.046-.98a30.409,30.409,0,0,1,4.76,0c.5.116,1.047.388,1.047.98A1.832,1.832,0,0,1,13.51,23.3a4.275,4.275,0,0,1-2.016.86,4.468,4.468,0,0,1-1.186,0A4.256,4.256,0,0,1,8.292,23.3,1.826,1.826,0,0,1,7.474,21.915Z" transform="translate(-0.917 -0.667)" fill="#017dd5" fill-rule="evenodd"/>
</svg>
