<svg xmlns="http://www.w3.org/2000/svg" xmlns:xlink="http://www.w3.org/1999/xlink" width="80" height="81.027" viewBox="0 0 80 81.027">
  <defs>
    <linearGradient id="linear-gradient" x1="0.193" y1="0.807" x2="0.854" y2="0.023" gradientUnits="objectBoundingBox">
      <stop offset="0" stop-color="#03e8e8"/>
      <stop offset="1" stop-color="#32eea3"/>
    </linearGradient>
  </defs>
  <path id="Path_6700" data-name="Path 6700" d="M333.785,159.648A25.083,25.083,0,0,0,308.7,134.566H264.469a10.684,10.684,0,0,0-10.684,10.684v59.657a10.685,10.685,0,0,0,10.684,10.686h0a21.7,21.7,0,0,0,21.057-16.468l2.092-8.426a1.142,1.142,0,0,0-1.109-1.418H270.092a1.143,1.143,0,0,1-1.067-1.553l15.012-39.05a1.141,1.141,0,0,1,1.066-.733h18.574a1.143,1.143,0,0,1,1.066,1.553l-9.173,23.863a1.142,1.142,0,0,0,1.066,1.551h17.31a1.143,1.143,0,0,1,.871,1.883L289.835,206.18a5.713,5.713,0,0,0,4.352,9.413H308.7a25.084,25.084,0,0,0,25.083-25.083v-1.32a24.971,24.971,0,0,0-4.346-14.112,24.964,24.964,0,0,0,4.346-14.111Z" transform="translate(-253.785 -134.566)" fill="url(#linear-gradient)"/>
</svg>
