<svg xmlns="http://www.w3.org/2000/svg" width="18.028" height="16.762" viewBox="0 0 18.028 16.762">
  <g id="Wallet" transform="translate(0.75 0.75)">
    <path id="Path_9954" data-name="Path 9954" d="M18.236,12.159h-3.5a2.324,2.324,0,1,1,0-4.648h3.5" transform="translate(-1.708 -2.318)" fill="none" stroke="#9098b1" stroke-linecap="round" stroke-linejoin="round" stroke-width="1.5"/>
    <path id="Path_9955" data-name="Path 9955" d="M15.05,9.7h-.269" transform="translate(-1.622 -2.238)" fill="none" stroke="#9098b1" stroke-linecap="round" stroke-linejoin="round" stroke-width="1.5"/>
    <path id="Path_9956" data-name="Path 9956" d="M6.615,2.5H14.08a4.532,4.532,0,0,1,4.532,4.532v6.2a4.532,4.532,0,0,1-4.532,4.532H6.615A4.532,4.532,0,0,1,2.083,13.23v-6.2A4.532,4.532,0,0,1,6.615,2.5Z" transform="translate(-2.083 -2.5)" fill="none" stroke="#9098b1" stroke-linecap="round" stroke-linejoin="round" stroke-width="1.5" fill-rule="evenodd"/>
    <path id="Path_9957" data-name="Path 9957" d="M5.863,6.282h4.663" transform="translate(-1.946 -2.363)" fill="none" stroke="#9098b1" stroke-linecap="round" stroke-linejoin="round" stroke-width="1.5"/>
  </g>
</svg>
