<svg id="Component_12_1" data-name="Component 12 – 1" xmlns="http://www.w3.org/2000/svg" width="22.799" height="22.799" viewBox="0 0 22.799 22.799">
  <path id="Path_892" data-name="Path 892" d="M0,0H22.8V22.8H0Z" fill="none"/>
  <path id="Path_893" data-name="Path 893" d="M18.66,20.654H3.921A.927.927,0,0,1,3,19.721V2.933A.927.927,0,0,1,3.921,2H18.66a.927.927,0,0,1,.921.933V19.721A.927.927,0,0,1,18.66,20.654Zm-.921-1.865V3.865H4.842V18.788ZM7.606,6.663h7.369V8.529H7.606Zm0,3.731h7.369V12.26H7.606Zm0,3.731h7.369V15.99H7.606Z" transform="translate(0.109 0.073)" fill="#9098b1"/>
</svg>
