<svg width="30" height="30" viewBox="0 0 30 30" fill="none" xmlns="http://www.w3.org/2000/svg">
<g clip-path="url(#clip0_72_16)">
<path d="M7.68501 24.819H8.28001V22.688H11.968V24.819H12.564V22.688H16.426V24.819H17.023V22.688H21.132V24.819H21.727V22.688H25.144V22.094H21.727V18.233H25.144V17.637H21.727V14.118H25.144V13.524H21.727V11.147H21.132V13.524H17.023V11.147H16.426V13.524H12.564V11.147H11.968V13.524H8.27901V11.147H7.68501V13.524H3.74701V14.118H7.68501V17.637H3.74701V18.233H7.68501V22.094H3.74701V22.688H7.68501V24.819V24.819ZM12.563 22.094V18.233H16.425V22.094H12.563ZM21.132 22.094H17.023V18.233H21.132V22.094V22.094ZM21.132 14.118V17.637H17.023V14.118C17.023 14.119 21.132 14.119 21.132 14.118ZM16.426 14.118V17.637H12.564V14.118C12.564 14.119 16.426 14.119 16.426 14.118ZM8.27901 14.118H11.967V17.637H8.27901V14.118ZM8.27901 18.233H11.967V22.094H8.27901V18.233Z" fill="#010002"/>
<path d="M29.207 2.50403L25.078 2.50803L24.475 2.51003V4.95803C24.475 5.61103 23.941 6.14503 23.287 6.14503H21.899C21.243 6.14503 20.711 5.61203 20.711 4.95803V2.51403L19.128 2.51603V4.95803C19.128 5.61103 18.593 6.14503 17.937 6.14503H16.549C15.894 6.14503 15.361 5.61203 15.361 4.95803V2.51703L13.679 2.52103V4.95903C13.679 5.61203 13.145 6.14603 12.49 6.14603H11.101C10.448 6.14603 9.913 5.61303 9.913 4.95903V2.52503H8.181V4.95903C8.181 5.61203 7.648 6.14603 6.993 6.14603H5.605C4.949 6.14603 4.416 5.61303 4.416 4.95903V2.53003L0 2.53403V28.687H2.09H27.15L29.237 28.681L29.207 2.50403ZM27.15 26.606H2.09V9.89703H27.15V26.606Z" fill="#010002"/>
<path d="M5.60501 5.30301H6.99301C7.15601 5.30301 7.28901 5.17001 7.28901 5.00601V0.846011C7.28901 0.681011 7.15601 0.549011 6.99301 0.549011H5.60501C5.44001 0.549011 5.30701 0.681011 5.30701 0.846011V5.00601C5.30701 5.17001 5.44001 5.30301 5.60501 5.30301Z" fill="#010002"/>
<path d="M11.101 5.30301H12.49C12.654 5.30301 12.787 5.17001 12.787 5.00601V0.846011C12.786 0.681011 12.653 0.549011 12.489 0.549011H11.1C10.937 0.549011 10.804 0.681011 10.804 0.846011V5.00601C10.805 5.17001 10.938 5.30301 11.101 5.30301Z" fill="#010002"/>
<path d="M16.549 5.30301H17.937C18.103 5.30301 18.236 5.17001 18.236 5.00601V0.846011C18.235 0.681011 18.103 0.549011 17.937 0.549011H16.549C16.385 0.549011 16.252 0.681011 16.252 0.846011V5.00601C16.252 5.17001 16.385 5.30301 16.549 5.30301Z" fill="#010002"/>
<path d="M21.899 5.30301H23.287C23.451 5.30301 23.583 5.17001 23.583 5.00601V0.846011C23.583 0.681011 23.451 0.549011 23.287 0.549011H21.899C21.735 0.549011 21.602 0.681011 21.602 0.846011V5.00601C21.603 5.17001 21.735 5.30301 21.899 5.30301Z" fill="#010002"/>
</g>
<defs>
<clipPath id="clip0_72_16">
<rect width="29.237" height="29.237" fill="white"/>
</clipPath>
</defs>
</svg>
