<svg width="84" height="64" viewBox="0 0 84 64" fill="none" xmlns="http://www.w3.org/2000/svg">
<path d="M82.25 14.0164C82.7141 14.0167 83.159 14.2011 83.4871 14.5292C83.8153 14.8574 83.9997 15.3023 84 15.7664V17.5544C84 20.3304 80.759 21.0164 78.344 21.0164L74.544 14.0164H82.25ZM77.206 26.2874C79.4347 30.1917 80.5779 34.6212 80.517 39.1164C80.517 43.9164 79.128 47.9824 77 53.0504V59.5164C77 60.4446 76.6313 61.3349 75.9749 61.9913C75.3185 62.6476 74.4283 63.0164 73.5 63.0164H68.25C67.3217 63.0164 66.4315 62.6476 65.7751 61.9913C65.1187 61.3349 64.75 60.4446 64.75 59.5164V56.0164H19.25V59.5164C19.25 60.4446 18.8813 61.3349 18.2249 61.9913C17.5685 62.6476 16.6783 63.0164 15.75 63.0164H10.5C9.57174 63.0164 8.6815 62.6476 8.02513 61.9913C7.36875 61.3349 7 60.4446 7 59.5164V53.0514C4.872 47.9834 3.483 43.9164 3.483 39.1164C3.42181 34.6213 4.56468 30.1918 6.793 26.2874C9.693 20.9084 13.272 14.2014 17.048 7.90539C19.948 3.06839 21.465 1.93039 25.021 1.29339C30.628 0.33577 36.3128 -0.0917833 42 0.0163865C47.6872 -0.091453 53.372 0.336435 58.979 1.29439C62.535 1.93139 64.054 3.06939 66.952 7.90639C70.728 14.2014 74.3 20.9084 77.206 26.2874ZM21 36.7664C21 35.728 20.6921 34.713 20.1152 33.8496C19.5383 32.9863 18.7184 32.3134 17.7591 31.916C16.7998 31.5187 15.7442 31.4147 14.7258 31.6173C13.7074 31.8198 12.7719 32.3199 12.0377 33.0541C11.3035 33.7883 10.8034 34.7238 10.6009 35.7422C10.3983 36.7606 10.5023 37.8162 10.8996 38.7755C11.297 39.7348 11.9699 40.5547 12.8333 41.1316C13.6966 41.7085 14.7116 42.0164 15.75 42.0164C17.1422 42.0159 18.4773 41.4626 19.4617 40.4781C20.4462 39.4937 20.9995 38.1586 21 36.7664ZM56 40.2664C55.9997 39.8023 55.8153 39.3574 55.4871 39.0292C55.159 38.7011 54.714 38.5167 54.25 38.5164H29.75C29.2859 38.5164 28.8408 38.7008 28.5126 39.0289C28.1844 39.3571 28 39.8023 28 40.2664C28 40.7305 28.1844 41.1756 28.5126 41.5038C28.8408 41.832 29.2859 42.0164 29.75 42.0164H54.25C54.714 42.0161 55.159 41.8317 55.4871 41.5035C55.8153 41.1754 55.9997 40.7304 56 40.2664ZM66.294 20.9214C64.7174 17.0943 62.807 13.4135 60.585 9.92139C60.2356 9.40534 59.7866 8.96428 59.2644 8.6241C58.7421 8.28392 58.1573 8.05147 57.544 7.94039C52.4133 7.03729 47.2091 6.61778 42 6.68739C36.7911 6.61916 31.5873 7.04 26.457 7.94439C25.8431 8.05394 25.2575 8.28575 24.7349 8.62606C24.2123 8.96637 23.7635 9.40822 23.415 9.92539C21.1926 13.4171 19.2825 17.098 17.707 20.9254C23.447 22.0164 32.788 22.6614 42 22.6614C51.212 22.6614 60.554 22.0164 66.294 20.9214ZM73.5 36.7664C73.5 35.728 73.1921 34.713 72.6152 33.8496C72.0383 32.9863 71.2184 32.3134 70.2591 31.916C69.2998 31.5187 68.2442 31.4147 67.2258 31.6173C66.2074 31.8198 65.2719 32.3199 64.5377 33.0541C63.8035 33.7883 63.3034 34.7238 63.1009 35.7422C62.8983 36.7606 63.0023 37.8162 63.3996 38.7755C63.797 39.7348 64.4699 40.5547 65.3333 41.1316C66.1966 41.7085 67.2116 42.0164 68.25 42.0164C69.6422 42.0159 70.9773 41.4626 71.9617 40.4781C72.9462 39.4937 73.4995 38.1586 73.5 36.7664ZM9.457 14.0164H1.75C1.28595 14.0167 0.840987 14.2011 0.512856 14.5292C0.184725 14.8574 0.000264943 15.3023 0 15.7664L0 17.5544C0 20.3304 3.241 21.0164 5.656 21.0164L9.457 14.0164Z" fill="#D3D3D3"/>
</svg>
