<svg width="200" height="100" viewBox="0 0 200 100" fill="none" xmlns="http://www.w3.org/2000/svg">
<rect x="1.5" y="1.5" width="197" height="97" rx="8.5" stroke="#D9D9D9" stroke-width="3"/>
<path d="M31.5 50.5C35.5271 50.5 38.7916 47.2354 38.7916 43.2084C38.7916 39.1813 35.5271 35.9167 31.5 35.9167C27.4729 35.9167 24.2083 39.1813 24.2083 43.2084C24.2083 47.2354 27.4729 50.5 31.5 50.5Z" stroke="#D9D9D9" stroke-width="1.5" stroke-linecap="round" stroke-linejoin="round"/>
<path d="M44.0271 65.0833C44.0271 59.4396 38.4125 54.875 31.5 54.875C24.5875 54.875 18.9729 59.4396 18.9729 65.0833" stroke="#D9D9D9" stroke-width="1.5" stroke-linecap="round" stroke-linejoin="round"/>
<path d="M35.0318 23H31.5002V12.0909H35.1436C36.2125 12.0909 37.1305 12.3093 37.8975 12.7461C38.6646 13.1793 39.2523 13.8026 39.6607 14.6158C40.0726 15.4254 40.2786 16.3967 40.2786 17.5295C40.2786 18.6658 40.0708 19.6424 39.6554 20.4592C39.2434 21.2759 38.6468 21.9045 37.8656 22.3448C37.0843 22.7816 36.1397 23 35.0318 23ZM33.1461 21.5618H34.9412C35.7722 21.5618 36.4629 21.4055 37.0133 21.093C37.5637 20.777 37.9757 20.3207 38.2491 19.7241C38.5225 19.1239 38.6593 18.3924 38.6593 17.5295C38.6593 16.6737 38.5225 15.9474 38.2491 15.3509C37.9792 14.7543 37.5762 14.3015 37.0399 13.9925C36.5037 13.6836 35.8379 13.5291 35.0424 13.5291H33.1461V21.5618ZM41.8975 23V14.8182H43.4369V16.1179H43.5222C43.6713 15.6776 43.9341 15.3313 44.3105 15.0792C44.6905 14.8235 45.1202 14.6957 45.5996 14.6957C45.699 14.6957 45.8162 14.6992 45.9511 14.7063C46.0896 14.7134 46.1979 14.7223 46.2761 14.733V16.2564C46.2122 16.2386 46.0985 16.2191 45.9352 16.1978C45.7718 16.1729 45.6085 16.1605 45.4451 16.1605C45.0687 16.1605 44.7331 16.2404 44.4384 16.4002C44.1472 16.5565 43.9163 16.7749 43.7459 17.0554C43.5754 17.3324 43.4902 17.6484 43.4902 18.0036V23H41.8975ZM47.3544 23V14.8182H48.947V23H47.3544ZM48.1587 13.5558C47.8817 13.5558 47.6438 13.4634 47.4449 13.2788C47.2496 13.0906 47.1519 12.8668 47.1519 12.6076C47.1519 12.3448 47.2496 12.1211 47.4449 11.9364C47.6438 11.7482 47.8817 11.6541 48.1587 11.6541C48.4357 11.6541 48.6718 11.7482 48.8671 11.9364C49.066 12.1211 49.1654 12.3448 49.1654 12.6076C49.1654 12.8668 49.066 13.0906 48.8671 13.2788C48.6718 13.4634 48.4357 13.5558 48.1587 13.5558ZM57.789 14.8182L54.822 23H53.1175L50.1452 14.8182H51.8551L53.9271 21.1143H54.0124L56.0791 14.8182H57.789ZM62.2338 23.1651C61.4277 23.1651 60.7334 22.9929 60.151 22.6484C59.5722 22.3004 59.1247 21.8121 58.8087 21.1836C58.4962 20.5515 58.3399 19.8111 58.3399 18.9624C58.3399 18.1243 58.4962 17.3857 58.8087 16.7464C59.1247 16.1072 59.5651 15.6083 60.1297 15.2496C60.6979 14.891 61.362 14.7116 62.1219 14.7116C62.5835 14.7116 63.031 14.788 63.4642 14.9407C63.8975 15.0934 64.2863 15.3331 64.6308 15.6598C64.9752 15.9865 65.2469 16.4109 65.4458 16.9329C65.6446 17.4513 65.7441 18.0817 65.7441 18.8239V19.3885H59.2402V18.1953H64.1833C64.1833 17.7763 64.0981 17.4052 63.9277 17.082C63.7572 16.7553 63.5175 16.4979 63.2085 16.3097C62.9031 16.1214 62.5445 16.0273 62.1326 16.0273C61.6851 16.0273 61.2945 16.1374 60.9607 16.3576C60.6304 16.5742 60.3747 16.8583 60.1936 17.2099C60.0161 17.5579 59.9273 17.9361 59.9273 18.3445V19.2766C59.9273 19.8235 60.0232 20.2887 60.2149 20.6722C60.4103 21.0558 60.6819 21.3487 61.0299 21.5511C61.3779 21.75 61.7845 21.8494 62.2497 21.8494C62.5516 21.8494 62.8268 21.8068 63.0754 21.7216C63.324 21.6328 63.5388 21.5014 63.7199 21.3274C63.901 21.1534 64.0395 20.9386 64.1354 20.6829L65.6429 20.9545C65.5221 21.3984 65.3055 21.7873 64.993 22.1211C64.684 22.4513 64.2952 22.7088 63.8264 22.8935C63.3612 23.0746 62.8304 23.1651 62.2338 23.1651ZM67.2112 23V14.8182H68.7506V16.1179H68.8358C68.985 15.6776 69.2478 15.3313 69.6242 15.0792C70.0042 14.8235 70.4338 14.6957 70.9133 14.6957C71.0127 14.6957 71.1299 14.6992 71.2648 14.7063C71.4033 14.7134 71.5116 14.7223 71.5897 14.733V16.2564C71.5258 16.2386 71.4122 16.2191 71.2488 16.1978C71.0855 16.1729 70.9221 16.1605 70.7588 16.1605C70.3824 16.1605 70.0468 16.2404 69.752 16.4002C69.4608 16.5565 69.23 16.7749 69.0596 17.0554C68.8891 17.3324 68.8039 17.6484 68.8039 18.0036V23H67.2112ZM76.4656 23V12.0909H78.1116V21.5831H83.0547V23H76.4656ZM84.5046 23V14.8182H86.0972V23H84.5046ZM85.3089 13.5558C85.0319 13.5558 84.794 13.4634 84.5951 13.2788C84.3998 13.0906 84.3021 12.8668 84.3021 12.6076C84.3021 12.3448 84.3998 12.1211 84.5951 11.9364C84.794 11.7482 85.0319 11.6541 85.3089 11.6541C85.5859 11.6541 85.822 11.7482 86.0173 11.9364C86.2162 12.1211 86.3156 12.3448 86.3156 12.6076C86.3156 12.8668 86.2162 13.0906 86.0173 13.2788C85.822 13.4634 85.5859 13.5558 85.3089 13.5558ZM91.3863 23.1651C90.5944 23.1651 89.9126 22.9858 89.3408 22.6271C88.7726 22.2649 88.3359 21.766 88.0305 21.1303C87.7251 20.4947 87.5724 19.7667 87.5724 18.9464C87.5724 18.1154 87.7286 17.3821 88.0411 16.7464C88.3536 16.1072 88.794 15.6083 89.3621 15.2496C89.9303 14.891 90.5997 14.7116 91.3703 14.7116C91.9918 14.7116 92.5457 14.8271 93.0322 15.0579C93.5187 15.2852 93.9111 15.6048 94.2094 16.0167C94.5113 16.4286 94.6906 16.9098 94.7474 17.4602H93.1974C93.1121 17.0767 92.9168 16.7464 92.6114 16.4695C92.3096 16.1925 91.9047 16.054 91.3969 16.054C90.953 16.054 90.5642 16.1712 90.2304 16.4055C89.9001 16.6364 89.6427 16.9666 89.458 17.3963C89.2734 17.8224 89.181 18.3267 89.181 18.9091C89.181 19.5057 89.2716 20.0206 89.4527 20.4538C89.6338 20.8871 89.8895 21.2227 90.2197 21.4606C90.5535 21.6985 90.9459 21.8175 91.3969 21.8175C91.6988 21.8175 91.9722 21.7624 92.2172 21.6523C92.4658 21.5387 92.6736 21.3771 92.8405 21.1676C93.0109 20.9581 93.1299 20.706 93.1974 20.4112H94.7474C94.6906 20.9403 94.5184 21.4126 94.2307 21.8281C93.9431 22.2436 93.5578 22.5703 93.0748 22.8082C92.5954 23.0462 92.0326 23.1651 91.3863 23.1651ZM99.6769 23.1651C98.8708 23.1651 98.1766 22.9929 97.5942 22.6484C97.0153 22.3004 96.5679 21.8121 96.2519 21.1836C95.9394 20.5515 95.7831 19.8111 95.7831 18.9624C95.7831 18.1243 95.9394 17.3857 96.2519 16.7464C96.5679 16.1072 97.0082 15.6083 97.5729 15.2496C98.1411 14.891 98.8051 14.7116 99.5651 14.7116C100.027 14.7116 100.474 14.788 100.907 14.9407C101.341 15.0934 101.729 15.3331 102.074 15.6598C102.418 15.9865 102.69 16.4109 102.889 16.9329C103.088 17.4513 103.187 18.0817 103.187 18.8239V19.3885H96.6833V18.1953H101.626C101.626 17.7763 101.541 17.4052 101.371 17.082C101.2 16.7553 100.961 16.4979 100.652 16.3097C100.346 16.1214 99.9876 16.0273 99.5757 16.0273C99.1283 16.0273 98.7376 16.1374 98.4038 16.3576C98.0736 16.5742 97.8179 16.8583 97.6368 17.2099C97.4592 17.5579 97.3705 17.9361 97.3705 18.3445V19.2766C97.3705 19.8235 97.4663 20.2887 97.6581 20.6722C97.8534 21.0558 98.1251 21.3487 98.4731 21.5511C98.8211 21.75 99.2277 21.8494 99.6929 21.8494C99.9948 21.8494 100.27 21.8068 100.519 21.7216C100.767 21.6328 100.982 21.5014 101.163 21.3274C101.344 21.1534 101.483 20.9386 101.579 20.6829L103.086 20.9545C102.965 21.3984 102.749 21.7873 102.436 22.1211C102.127 22.4513 101.738 22.7088 101.27 22.8935C100.804 23.0746 100.274 23.1651 99.6769 23.1651ZM106.247 18.142V23H104.654V14.8182H106.183V16.1499H106.284C106.473 15.7166 106.767 15.3686 107.169 15.1058C107.573 14.843 108.083 14.7116 108.697 14.7116C109.255 14.7116 109.743 14.8288 110.162 15.0632C110.581 15.294 110.906 15.6385 111.137 16.0966C111.368 16.5547 111.483 17.1211 111.483 17.7958V23H109.891V17.9876C109.891 17.3945 109.736 16.9311 109.427 16.5973C109.118 16.2599 108.694 16.0913 108.154 16.0913C107.785 16.0913 107.456 16.1712 107.169 16.331C106.884 16.4908 106.659 16.7251 106.492 17.0341C106.329 17.3395 106.247 17.7088 106.247 18.142ZM119.45 16.8157L118.007 17.0714C117.946 16.8867 117.85 16.7109 117.719 16.544C117.591 16.3771 117.417 16.2404 117.197 16.1339C116.977 16.0273 116.702 15.9741 116.371 15.9741C115.92 15.9741 115.544 16.0753 115.242 16.2777C114.94 16.4766 114.789 16.734 114.789 17.0501C114.789 17.3235 114.891 17.5437 115.093 17.7106C115.295 17.8775 115.622 18.0142 116.073 18.1207L117.373 18.419C118.126 18.593 118.687 18.8612 119.056 19.2234C119.425 19.5856 119.61 20.0561 119.61 20.6349C119.61 21.125 119.468 21.5618 119.184 21.9453C118.903 22.3253 118.511 22.6236 118.007 22.8402C117.506 23.0568 116.925 23.1651 116.265 23.1651C115.349 23.1651 114.601 22.9698 114.022 22.5792C113.443 22.185 113.088 21.6257 112.957 20.9013L114.496 20.6669C114.592 21.0682 114.789 21.3718 115.088 21.5778C115.386 21.7802 115.775 21.8814 116.254 21.8814C116.776 21.8814 117.193 21.7731 117.506 21.5565C117.818 21.3363 117.975 21.0682 117.975 20.7521C117.975 20.4964 117.879 20.2816 117.687 20.1076C117.499 19.9336 117.209 19.8022 116.819 19.7134L115.434 19.4098C114.67 19.2358 114.106 18.9588 113.74 18.5788C113.378 18.1989 113.197 17.7177 113.197 17.1353C113.197 16.6523 113.332 16.2298 113.602 15.8675C113.871 15.5053 114.244 15.223 114.72 15.0206C115.196 14.8146 115.741 14.7116 116.355 14.7116C117.24 14.7116 117.936 14.9034 118.443 15.2869C118.951 15.6669 119.287 16.1765 119.45 16.8157ZM124.587 23.1651C123.781 23.1651 123.087 22.9929 122.505 22.6484C121.926 22.3004 121.478 21.8121 121.162 21.1836C120.85 20.5515 120.694 19.8111 120.694 18.9624C120.694 18.1243 120.85 17.3857 121.162 16.7464C121.478 16.1072 121.919 15.6083 122.483 15.2496C123.052 14.891 123.716 14.7116 124.476 14.7116C124.937 14.7116 125.385 14.788 125.818 14.9407C126.251 15.0934 126.64 15.3331 126.984 15.6598C127.329 15.9865 127.601 16.4109 127.799 16.9329C127.998 17.4513 128.098 18.0817 128.098 18.8239V19.3885H121.594V18.1953H126.537C126.537 17.7763 126.452 17.4052 126.281 17.082C126.111 16.7553 125.871 16.4979 125.562 16.3097C125.257 16.1214 124.898 16.0273 124.486 16.0273C124.039 16.0273 123.648 16.1374 123.314 16.3576C122.984 16.5742 122.728 16.8583 122.547 17.2099C122.37 17.5579 122.281 17.9361 122.281 18.3445V19.2766C122.281 19.8235 122.377 20.2887 122.569 20.6722C122.764 21.0558 123.036 21.3487 123.384 21.5511C123.732 21.75 124.138 21.8494 124.603 21.8494C124.905 21.8494 125.181 21.8068 125.429 21.7216C125.678 21.6328 125.893 21.5014 126.074 21.3274C126.255 21.1534 126.393 20.9386 126.489 20.6829L127.997 20.9545C127.876 21.3984 127.659 21.7873 127.347 22.1211C127.038 22.4513 126.649 22.7088 126.18 22.8935C125.715 23.0746 125.184 23.1651 124.587 23.1651ZM133.362 23V12.0909H140.127V13.5078H135.008V16.8317H139.643V18.2433H135.008V23H133.362ZM141.621 23V14.8182H143.161V16.1179H143.246C143.395 15.6776 143.658 15.3313 144.034 15.0792C144.414 14.8235 144.844 14.6957 145.323 14.6957C145.423 14.6957 145.54 14.6992 145.675 14.7063C145.813 14.7134 145.922 14.7223 146 14.733V16.2564C145.936 16.2386 145.822 16.2191 145.659 16.1978C145.495 16.1729 145.332 16.1605 145.169 16.1605C144.792 16.1605 144.457 16.2404 144.162 16.4002C143.871 16.5565 143.64 16.7749 143.47 17.0554C143.299 17.3324 143.214 17.6484 143.214 18.0036V23H141.621ZM150.231 23.1651C149.464 23.1651 148.795 22.9893 148.223 22.6378C147.652 22.2862 147.208 21.7944 146.892 21.1623C146.576 20.5302 146.417 19.7915 146.417 18.9464C146.417 18.0977 146.576 17.3555 146.892 16.7198C147.208 16.0842 147.652 15.5906 148.223 15.239C148.795 14.8874 149.464 14.7116 150.231 14.7116C150.998 14.7116 151.668 14.8874 152.24 15.239C152.811 15.5906 153.255 16.0842 153.571 16.7198C153.887 17.3555 154.045 18.0977 154.045 18.9464C154.045 19.7915 153.887 20.5302 153.571 21.1623C153.255 21.7944 152.811 22.2862 152.24 22.6378C151.668 22.9893 150.998 23.1651 150.231 23.1651ZM150.237 21.8281C150.734 21.8281 151.146 21.6967 151.473 21.4339C151.799 21.1712 152.041 20.8214 152.197 20.3846C152.357 19.9478 152.437 19.4666 152.437 18.9411C152.437 18.419 152.357 17.9396 152.197 17.5028C152.041 17.0625 151.799 16.7092 151.473 16.4428C151.146 16.1765 150.734 16.0433 150.237 16.0433C149.736 16.0433 149.321 16.1765 148.99 16.4428C148.664 16.7092 148.42 17.0625 148.261 17.5028C148.104 17.9396 148.026 18.419 148.026 18.9411C148.026 19.4666 148.104 19.9478 148.261 20.3846C148.42 20.8214 148.664 21.1712 148.99 21.4339C149.321 21.6967 149.736 21.8281 150.237 21.8281ZM157.116 18.142V23H155.523V14.8182H157.052V16.1499H157.153C157.341 15.7166 157.636 15.3686 158.037 15.1058C158.442 14.843 158.952 14.7116 159.566 14.7116C160.124 14.7116 160.612 14.8288 161.031 15.0632C161.45 15.294 161.775 15.6385 162.006 16.0966C162.237 16.5547 162.352 17.1211 162.352 17.7958V23H160.759V17.9876C160.759 17.3945 160.605 16.9311 160.296 16.5973C159.987 16.2599 159.563 16.0913 159.023 16.0913C158.653 16.0913 158.325 16.1712 158.037 16.331C157.753 16.4908 157.528 16.7251 157.361 17.0341C157.197 17.3395 157.116 17.7088 157.116 18.142ZM168.007 14.8182V16.0966H163.538V14.8182H168.007ZM164.737 12.858H166.329V20.5977C166.329 20.9066 166.375 21.1392 166.468 21.2955C166.56 21.4482 166.679 21.5529 166.825 21.6097C166.974 21.663 167.135 21.6896 167.309 21.6896C167.437 21.6896 167.549 21.6808 167.645 21.663C167.741 21.6452 167.815 21.631 167.869 21.6204L168.156 22.9361C168.064 22.9716 167.933 23.0071 167.762 23.0426C167.592 23.0817 167.379 23.103 167.123 23.1065C166.704 23.1136 166.313 23.0391 165.951 22.8828C165.589 22.7266 165.296 22.4851 165.072 22.1584C164.848 21.8317 164.737 21.4215 164.737 20.9279V12.858Z" fill="#D9D9D9"/>
<rect x="56" y="33" width="45" height="2" rx="1" fill="#D9D9D9"/>
<rect x="56" y="43" width="68" height="2" rx="1" fill="#D9D9D9"/>
<rect x="56" y="53" width="91" height="2" rx="1" fill="#D9D9D9"/>
<rect x="56" y="64" width="113" height="2" rx="1" fill="#D9D9D9"/>
<rect x="56" y="74" width="90" height="2" rx="1" fill="#D9D9D9"/>
</svg>
