<svg width="200" height="100" viewBox="0 0 200 100" fill="none" xmlns="http://www.w3.org/2000/svg">
<rect x="1.5" y="1.5" width="197" height="97" rx="8.5" stroke="#D9D9D9" stroke-width="3"/>
<path d="M31.5 50.5C35.5271 50.5 38.7916 47.2354 38.7916 43.2084C38.7916 39.1813 35.5271 35.9167 31.5 35.9167C27.4729 35.9167 24.2083 39.1813 24.2083 43.2084C24.2083 47.2354 27.4729 50.5 31.5 50.5Z" stroke="#D9D9D9" stroke-width="1.5" stroke-linecap="round" stroke-linejoin="round"/>
<path d="M44.0271 65.0833C44.0271 59.4396 38.4125 54.875 31.5 54.875C24.5875 54.875 18.9729 59.4396 18.9729 65.0833" stroke="#D9D9D9" stroke-width="1.5" stroke-linecap="round" stroke-linejoin="round"/>
<path d="M36.1415 23H32.6099V12.0909H36.2534C37.3223 12.0909 38.2403 12.3093 39.0073 12.7461C39.7743 13.1793 40.3621 13.8026 40.7704 14.6158C41.1824 15.4254 41.3883 16.3967 41.3883 17.5295C41.3883 18.6658 41.1806 19.6424 40.7651 20.4592C40.3532 21.2759 39.7566 21.9045 38.9753 22.3448C38.1941 22.7816 37.2495 23 36.1415 23ZM34.2559 21.5618H36.051C36.8819 21.5618 37.5726 21.4055 38.1231 21.093C38.6735 20.777 39.0854 20.3207 39.3589 19.7241C39.6323 19.1239 39.769 18.3924 39.769 17.5295C39.769 16.6737 39.6323 15.9474 39.3589 15.3509C39.089 14.7543 38.6859 14.3015 38.1497 13.9925C37.6135 13.6836 36.9476 13.5291 36.1522 13.5291H34.2559V21.5618ZM43.0073 23V14.8182H44.5467V16.1179H44.6319C44.7811 15.6776 45.0439 15.3313 45.4203 15.0792C45.8003 14.8235 46.2299 14.6957 46.7093 14.6957C46.8088 14.6957 46.926 14.6992 47.0609 14.7063C47.1994 14.7134 47.3077 14.7223 47.3858 14.733V16.2564C47.3219 16.2386 47.2083 16.2191 47.0449 16.1978C46.8816 16.1729 46.7182 16.1605 46.5549 16.1605C46.1785 16.1605 45.8429 16.2404 45.5481 16.4002C45.2569 16.5565 45.0261 16.7749 44.8557 17.0554C44.6852 17.3324 44.6 17.6484 44.6 18.0036V23H43.0073ZM48.4641 23V14.8182H50.0568V23H48.4641ZM49.2685 13.5558C48.9915 13.5558 48.7535 13.4634 48.5547 13.2788C48.3594 13.0906 48.2617 12.8668 48.2617 12.6076C48.2617 12.3448 48.3594 12.1211 48.5547 11.9364C48.7535 11.7482 48.9915 11.6541 49.2685 11.6541C49.5454 11.6541 49.7816 11.7482 49.9769 11.9364C50.1758 12.1211 50.2752 12.3448 50.2752 12.6076C50.2752 12.8668 50.1758 13.0906 49.9769 13.2788C49.7816 13.4634 49.5454 13.5558 49.2685 13.5558ZM58.8988 14.8182L55.9318 23H54.2272L51.2549 14.8182H52.9648L55.0369 21.1143H55.1221L57.1889 14.8182H58.8988ZM63.3435 23.1651C62.5374 23.1651 61.8432 22.9929 61.2608 22.6484C60.6819 22.3004 60.2345 21.8121 59.9185 21.1836C59.606 20.5515 59.4497 19.8111 59.4497 18.9624C59.4497 18.1243 59.606 17.3857 59.9185 16.7464C60.2345 16.1072 60.6748 15.6083 61.2395 15.2496C61.8077 14.891 62.4717 14.7116 63.2317 14.7116C63.6933 14.7116 64.1408 14.788 64.574 14.9407C65.0072 15.0934 65.3961 15.3331 65.7405 15.6598C66.085 15.9865 66.3567 16.4109 66.5555 16.9329C66.7544 17.4513 66.8538 18.0817 66.8538 18.8239V19.3885H60.3499V18.1953H65.2931C65.2931 17.7763 65.2079 17.4052 65.0374 17.082C64.867 16.7553 64.6273 16.4979 64.3183 16.3097C64.0129 16.1214 63.6542 16.0273 63.2423 16.0273C62.7949 16.0273 62.4042 16.1374 62.0704 16.3576C61.7402 16.5742 61.4845 16.8583 61.3034 17.2099C61.1258 17.5579 61.0371 17.9361 61.0371 18.3445V19.2766C61.0371 19.8235 61.1329 20.2887 61.3247 20.6722C61.52 21.0558 61.7917 21.3487 62.1397 21.5511C62.4877 21.75 62.8943 21.8494 63.3595 21.8494C63.6614 21.8494 63.9366 21.8068 64.1851 21.7216C64.4337 21.6328 64.6486 21.5014 64.8297 21.3274C65.0108 21.1534 65.1493 20.9386 65.2452 20.6829L66.7526 20.9545C66.6319 21.3984 66.4153 21.7873 66.1028 22.1211C65.7938 22.4513 65.405 22.7088 64.9362 22.8935C64.471 23.0746 63.9401 23.1651 63.3435 23.1651ZM68.321 23V14.8182H69.8604V16.1179H69.9456C70.0948 15.6776 70.3575 15.3313 70.734 15.0792C71.1139 14.8235 71.5436 14.6957 72.023 14.6957C72.1224 14.6957 72.2396 14.6992 72.3746 14.7063C72.5131 14.7134 72.6214 14.7223 72.6995 14.733V16.2564C72.6356 16.2386 72.522 16.2191 72.3586 16.1978C72.1952 16.1729 72.0319 16.1605 71.8685 16.1605C71.4921 16.1605 71.1565 16.2404 70.8618 16.4002C70.5706 16.5565 70.3398 16.7749 70.1693 17.0554C69.9989 17.3324 69.9136 17.6484 69.9136 18.0036V23H68.321ZM77.5754 23V12.0909H79.2213V21.5831H84.1645V23H77.5754ZM85.6143 23V14.8182H87.207V23H85.6143ZM86.4186 13.5558C86.1417 13.5558 85.9037 13.4634 85.7049 13.2788C85.5096 13.0906 85.4119 12.8668 85.4119 12.6076C85.4119 12.3448 85.5096 12.1211 85.7049 11.9364C85.9037 11.7482 86.1417 11.6541 86.4186 11.6541C86.6956 11.6541 86.9318 11.7482 87.1271 11.9364C87.326 12.1211 87.4254 12.3448 87.4254 12.6076C87.4254 12.8668 87.326 13.0906 87.1271 13.2788C86.9318 13.4634 86.6956 13.5558 86.4186 13.5558ZM92.496 23.1651C91.7041 23.1651 91.0223 22.9858 90.4506 22.6271C89.8824 22.2649 89.4456 21.766 89.1402 21.1303C88.8348 20.4947 88.6821 19.7667 88.6821 18.9464C88.6821 18.1154 88.8384 17.3821 89.1509 16.7464C89.4634 16.1072 89.9037 15.6083 90.4719 15.2496C91.0401 14.891 91.7095 14.7116 92.4801 14.7116C93.1015 14.7116 93.6555 14.8271 94.142 15.0579C94.6285 15.2852 95.0209 15.6048 95.3192 16.0167C95.621 16.4286 95.8004 16.9098 95.8572 17.4602H94.3071C94.2219 17.0767 94.0266 16.7464 93.7212 16.4695C93.4193 16.1925 93.0145 16.054 92.5067 16.054C92.0628 16.054 91.674 16.1712 91.3402 16.4055C91.0099 16.6364 90.7524 16.9666 90.5678 17.3963C90.3831 17.8224 90.2908 18.3267 90.2908 18.9091C90.2908 19.5057 90.3813 20.0206 90.5625 20.4538C90.7436 20.8871 90.9992 21.2227 91.3295 21.4606C91.6633 21.6985 92.0557 21.8175 92.5067 21.8175C92.8085 21.8175 93.082 21.7624 93.327 21.6523C93.5756 21.5387 93.7833 21.3771 93.9502 21.1676C94.1207 20.9581 94.2397 20.706 94.3071 20.4112H95.8572C95.8004 20.9403 95.6281 21.4126 95.3405 21.8281C95.0529 22.2436 94.6676 22.5703 94.1846 22.8082C93.7052 23.0462 93.1424 23.1651 92.496 23.1651ZM100.787 23.1651C99.9806 23.1651 99.2863 22.9929 98.7039 22.6484C98.1251 22.3004 97.6777 21.8121 97.3616 21.1836C97.0491 20.5515 96.8929 19.8111 96.8929 18.9624C96.8929 18.1243 97.0491 17.3857 97.3616 16.7464C97.6777 16.1072 98.118 15.6083 98.6826 15.2496C99.2508 14.891 99.9149 14.7116 100.675 14.7116C101.136 14.7116 101.584 14.788 102.017 14.9407C102.45 15.0934 102.839 15.3331 103.184 15.6598C103.528 15.9865 103.8 16.4109 103.999 16.9329C104.198 17.4513 104.297 18.0817 104.297 18.8239V19.3885H97.7931V18.1953H102.736C102.736 17.7763 102.651 17.4052 102.481 17.082C102.31 16.7553 102.07 16.4979 101.761 16.3097C101.456 16.1214 101.097 16.0273 100.685 16.0273C100.238 16.0273 99.8474 16.1374 99.5136 16.3576C99.1834 16.5742 98.9277 16.8583 98.7466 17.2099C98.569 17.5579 98.4802 17.9361 98.4802 18.3445V19.2766C98.4802 19.8235 98.5761 20.2887 98.7679 20.6722C98.9632 21.0558 99.2348 21.3487 99.5829 21.5511C99.9309 21.75 100.337 21.8494 100.803 21.8494C101.105 21.8494 101.38 21.8068 101.628 21.7216C101.877 21.6328 102.092 21.5014 102.273 21.3274C102.454 21.1534 102.592 20.9386 102.688 20.6829L104.196 20.9545C104.075 21.3984 103.858 21.7873 103.546 22.1211C103.237 22.4513 102.848 22.7088 102.379 22.8935C101.914 23.0746 101.383 23.1651 100.787 23.1651ZM107.357 18.142V23H105.764V14.8182H107.293V16.1499H107.394C107.582 15.7166 107.877 15.3686 108.278 15.1058C108.683 14.843 109.193 14.7116 109.807 14.7116C110.365 14.7116 110.853 14.8288 111.272 15.0632C111.691 15.294 112.016 15.6385 112.247 16.0966C112.478 16.5547 112.593 17.1211 112.593 17.7958V23H111V17.9876C111 17.3945 110.846 16.9311 110.537 16.5973C110.228 16.2599 109.804 16.0913 109.264 16.0913C108.894 16.0913 108.566 16.1712 108.278 16.331C107.994 16.4908 107.769 16.7251 107.602 17.0341C107.438 17.3395 107.357 17.7088 107.357 18.142ZM120.56 16.8157L119.116 17.0714C119.056 16.8867 118.96 16.7109 118.829 16.544C118.701 16.3771 118.527 16.2404 118.307 16.1339C118.087 16.0273 117.811 15.9741 117.481 15.9741C117.03 15.9741 116.654 16.0753 116.352 16.2777C116.05 16.4766 115.899 16.734 115.899 17.0501C115.899 17.3235 116 17.5437 116.203 17.7106C116.405 17.8775 116.732 18.0142 117.183 18.1207L118.483 18.419C119.235 18.593 119.797 18.8612 120.166 19.2234C120.535 19.5856 120.72 20.0561 120.72 20.6349C120.72 21.125 120.578 21.5618 120.294 21.9453C120.013 22.3253 119.621 22.6236 119.116 22.8402C118.616 23.0568 118.035 23.1651 117.375 23.1651C116.458 23.1651 115.711 22.9698 115.132 22.5792C114.553 22.185 114.198 21.6257 114.067 20.9013L115.606 20.6669C115.702 21.0682 115.899 21.3718 116.197 21.5778C116.496 21.7802 116.885 21.8814 117.364 21.8814C117.886 21.8814 118.303 21.7731 118.616 21.5565C118.928 21.3363 119.085 21.0682 119.085 20.7521C119.085 20.4964 118.989 20.2816 118.797 20.1076C118.609 19.9336 118.319 19.8022 117.929 19.7134L116.544 19.4098C115.78 19.2358 115.216 18.9588 114.85 18.5788C114.488 18.1989 114.306 17.7177 114.306 17.1353C114.306 16.6523 114.441 16.2298 114.711 15.8675C114.981 15.5053 115.354 15.223 115.83 15.0206C116.306 14.8146 116.851 14.7116 117.465 14.7116C118.349 14.7116 119.045 14.9034 119.553 15.2869C120.061 15.6669 120.397 16.1765 120.56 16.8157ZM125.697 23.1651C124.891 23.1651 124.197 22.9929 123.614 22.6484C123.036 22.3004 122.588 21.8121 122.272 21.1836C121.96 20.5515 121.803 19.8111 121.803 18.9624C121.803 18.1243 121.96 17.3857 122.272 16.7464C122.588 16.1072 123.029 15.6083 123.593 15.2496C124.161 14.891 124.825 14.7116 125.585 14.7116C126.047 14.7116 126.494 14.788 126.928 14.9407C127.361 15.0934 127.75 15.3331 128.094 15.6598C128.439 15.9865 128.71 16.4109 128.909 16.9329C129.108 17.4513 129.208 18.0817 129.208 18.8239V19.3885H122.704V18.1953H127.647C127.647 17.7763 127.562 17.4052 127.391 17.082C127.221 16.7553 126.981 16.4979 126.672 16.3097C126.367 16.1214 126.008 16.0273 125.596 16.0273C125.149 16.0273 124.758 16.1374 124.424 16.3576C124.094 16.5742 123.838 16.8583 123.657 17.2099C123.48 17.5579 123.391 17.9361 123.391 18.3445V19.2766C123.391 19.8235 123.487 20.2887 123.678 20.6722C123.874 21.0558 124.145 21.3487 124.493 21.5511C124.841 21.75 125.248 21.8494 125.713 21.8494C126.015 21.8494 126.29 21.8068 126.539 21.7216C126.787 21.6328 127.002 21.5014 127.183 21.3274C127.364 21.1534 127.503 20.9386 127.599 20.6829L129.106 20.9545C128.986 21.3984 128.769 21.7873 128.456 22.1211C128.148 22.4513 127.759 22.7088 127.29 22.8935C126.825 23.0746 126.294 23.1651 125.697 23.1651ZM134.472 23V12.0909H138.467C139.241 12.0909 139.882 12.2187 140.39 12.4744C140.898 12.7266 141.278 13.0692 141.53 13.5025C141.782 13.9322 141.908 14.4169 141.908 14.9567C141.908 15.4112 141.825 15.7947 141.658 16.1072C141.491 16.4162 141.267 16.6648 140.987 16.853C140.71 17.0376 140.404 17.1726 140.071 17.2578V17.3643C140.433 17.3821 140.786 17.4993 141.131 17.7159C141.479 17.929 141.766 18.2326 141.994 18.6268C142.221 19.021 142.334 19.5004 142.334 20.065C142.334 20.6225 142.203 21.1232 141.94 21.5671C141.681 22.0075 141.28 22.3572 140.736 22.6165C140.193 22.8722 139.499 23 138.654 23H134.472ZM136.118 21.5884H138.494C139.282 21.5884 139.847 21.4357 140.188 21.1303C140.529 20.8249 140.699 20.4432 140.699 19.9851C140.699 19.6406 140.612 19.3246 140.438 19.0369C140.264 18.7493 140.016 18.5202 139.692 18.3498C139.373 18.1793 138.993 18.0941 138.552 18.0941H136.118V21.5884ZM136.118 16.8104H138.323C138.693 16.8104 139.025 16.7393 139.32 16.5973C139.618 16.4553 139.854 16.2564 140.028 16.0007C140.206 15.7415 140.294 15.4361 140.294 15.0845C140.294 14.6335 140.136 14.2553 139.82 13.9499C139.504 13.6445 139.019 13.4918 138.366 13.4918H136.118V16.8104ZM146.24 23.1811C145.721 23.1811 145.253 23.0852 144.834 22.8935C144.415 22.6982 144.083 22.4158 143.838 22.0465C143.596 21.6772 143.475 21.2244 143.475 20.6882C143.475 20.2266 143.564 19.8466 143.742 19.5483C143.919 19.25 144.159 19.0138 144.461 18.8398C144.763 18.6658 145.1 18.5344 145.473 18.4457C145.846 18.3569 146.226 18.2894 146.613 18.2433C147.103 18.1864 147.501 18.1403 147.806 18.1048C148.111 18.0657 148.333 18.0036 148.472 17.9183C148.61 17.8331 148.68 17.6946 148.68 17.5028V17.4656C148.68 17.0004 148.548 16.6399 148.285 16.3842C148.026 16.1286 147.639 16.0007 147.124 16.0007C146.588 16.0007 146.165 16.1197 145.856 16.3576C145.551 16.592 145.34 16.853 145.222 17.1406L143.726 16.7997C143.903 16.3026 144.162 15.9013 144.503 15.5959C144.848 15.2869 145.244 15.0632 145.691 14.9247C146.139 14.7827 146.609 14.7116 147.103 14.7116C147.43 14.7116 147.776 14.7507 148.142 14.8288C148.511 14.9034 148.855 15.0419 149.175 15.2443C149.498 15.4467 149.763 15.7362 149.969 16.1126C150.175 16.4854 150.278 16.9702 150.278 17.5668V23H148.722V21.8814H148.658C148.555 22.0874 148.401 22.2898 148.195 22.4886C147.989 22.6875 147.724 22.8526 147.401 22.984C147.078 23.1154 146.691 23.1811 146.24 23.1811ZM146.586 21.9027C147.026 21.9027 147.403 21.8157 147.715 21.6417C148.031 21.4677 148.271 21.2404 148.434 20.9599C148.601 20.6758 148.685 20.3722 148.685 20.049V18.9943C148.628 19.0511 148.518 19.1044 148.355 19.1541C148.195 19.2003 148.012 19.2411 147.806 19.2766C147.6 19.3086 147.399 19.3388 147.204 19.3672C147.009 19.392 146.845 19.4134 146.714 19.4311C146.405 19.4702 146.123 19.5359 145.867 19.6282C145.615 19.7205 145.412 19.8537 145.26 20.0277C145.111 20.1982 145.036 20.4254 145.036 20.7095C145.036 21.1037 145.182 21.402 145.473 21.6044C145.764 21.8033 146.135 21.9027 146.586 21.9027ZM155.545 23.1651C154.753 23.1651 154.072 22.9858 153.5 22.6271C152.932 22.2649 152.495 21.766 152.189 21.1303C151.884 20.4947 151.731 19.7667 151.731 18.9464C151.731 18.1154 151.888 17.3821 152.2 16.7464C152.513 16.1072 152.953 15.6083 153.521 15.2496C154.089 14.891 154.759 14.7116 155.529 14.7116C156.151 14.7116 156.705 14.8271 157.191 15.0579C157.678 15.2852 158.07 15.6048 158.368 16.0167C158.67 16.4286 158.85 16.9098 158.906 17.4602H157.356C157.271 17.0767 157.076 16.7464 156.77 16.4695C156.469 16.1925 156.064 16.054 155.556 16.054C155.112 16.054 154.723 16.1712 154.389 16.4055C154.059 16.6364 153.802 16.9666 153.617 17.3963C153.432 17.8224 153.34 18.3267 153.34 18.9091C153.34 19.5057 153.431 20.0206 153.612 20.4538C153.793 20.8871 154.048 21.2227 154.379 21.4606C154.713 21.6985 155.105 21.8175 155.556 21.8175C155.858 21.8175 156.131 21.7624 156.376 21.6523C156.625 21.5387 156.833 21.3771 156.999 21.1676C157.17 20.9581 157.289 20.706 157.356 20.4112H158.906C158.85 20.9403 158.677 21.4126 158.39 21.8281C158.102 22.2436 157.717 22.5703 157.234 22.8082C156.754 23.0462 156.192 23.1651 155.545 23.1651ZM161.774 20.2248L161.764 18.2805H162.041L165.301 14.8182H167.208L163.49 18.7599H163.239L161.774 20.2248ZM160.31 23V12.0909H161.902V23H160.31ZM165.477 23L162.547 19.1115L163.644 17.9982L167.431 23H165.477Z" fill="#D9D9D9"/>
<rect x="58" y="33" width="45" height="2" rx="1" fill="#D9D9D9"/>
<rect x="58" y="43" width="68" height="2" rx="1" fill="#D9D9D9"/>
<rect x="58" y="53" width="91" height="2" rx="1" fill="#D9D9D9"/>
<rect x="58" y="64" width="113" height="2" rx="1" fill="#D9D9D9"/>
<rect x="58" y="74" width="90" height="2" rx="1" fill="#D9D9D9"/>
</svg>
