<svg xmlns="http://www.w3.org/2000/svg" width="19.835" height="19.668" viewBox="0 0 19.835 19.668">
  <g id="home_2_" data-name="home (2)" transform="translate(0 0)">
    <path id="Path_1163" data-name="Path 1163" d="M74.105,99.176a.413.413,0,0,0-.571,0l-9.505,9.08a.413.413,0,0,0-.128.3l0,8.522a1.652,1.652,0,0,0,1.652,1.652h4.962a.826.826,0,0,0,.826-.826v-7.022a.413.413,0,0,1,.413-.413h4.131a.413.413,0,0,1,.413.413V117.9a.826.826,0,0,0,.826.826h4.96a1.652,1.652,0,0,0,1.652-1.652v-8.522a.413.413,0,0,0-.128-.3Z" transform="translate(-63.9 -99.061)" fill="#9098b1"/>
  </g>
</svg>
