<svg width="18" height="20" viewBox="0 0 18 20" fill="none" xmlns="http://www.w3.org/2000/svg">
<path d="M16.0074 3.02083C14.2556 1.14583 11.6793 0 9 0C6.3207 0 3.74444 1.04167 1.99259 3.02083C0.549888 4.6875 -0.171462 6.77083 0.0346381 8.8542C0.0346381 9.2708 0.137688 9.6875 0.240738 10C1.16819 14.375 5.9085 18.2292 7.9695 19.6875C8.2786 19.8958 8.5878 20 9 20C9.4122 20 9.7214 19.8958 10.0305 19.6875C11.9885 18.2292 16.8318 14.375 17.7593 10C17.8623 9.6875 17.8623 9.2708 17.9654 8.8542C18.1715 6.77083 17.4501 4.6875 16.0074 3.02083ZM9 11.9792C7.4542 11.9792 6.1146 10.7292 6.1146 9.0625C6.1146 7.39583 7.3512 6.14583 9 6.14583C10.6488 6.14583 11.8854 7.39583 11.8854 9.0625C11.8854 10.7292 10.5458 11.9792 9 11.9792Z" fill="#030D45"/>
</svg>
