<svg xmlns="http://www.w3.org/2000/svg" width="249.146" height="143.756" viewBox="0 0 249.146 143.756">
  <g id="Group_11682" data-name="Group 11682" transform="translate(-69.431 -63)">
    <g id="Group_11400" data-name="Group 11400" transform="translate(132.002 192.374)">
      <g id="Group_11398" data-name="Group 11398">
        <ellipse id="Ellipse_252" data-name="Ellipse 252" cx="42.356" cy="1.782" rx="42.356" ry="1.782" fill="#f0cd95"/>
      </g>
      <g id="Group_11399" data-name="Group 11399" transform="translate(89.041 6.494)">
        <path id="Path_8960" data-name="Path 8960" d="M466.872,398.746c0,.854-5.488,1.546-12.258,1.546s-12.258-.692-12.258-1.546,5.488-1.546,12.258-1.546S466.872,397.892,466.872,398.746Z" transform="translate(-442.356 -397.2)" fill="#f0cd95"/>
      </g>
    </g>
    <g id="Group_11681" data-name="Group 11681" transform="translate(69.431 63)">
      <g id="Group_11401" data-name="Group 11401" transform="translate(13.073 1.72)">
        <path id="Path_8961" data-name="Path 8961" d="M333.019,98.664c-3.625-5.458-9.661-9.584-16.163-9.3-5.743.249-10.75,3.724-15.918,6.24s-11.75,4-16.367.574c-3.146-2.333-4.488-6.3-6.321-9.764-6.369-12.027-20.234-19.009-33.842-19.176S217.626,72.974,207.017,81.5s-18.926,19.542-26.468,30.869C174.8,121,167.822,130.88,157.462,131.388c-9.233.452-17.131-6.981-26.318-8.008-11.089-1.24-20.8,6.882-28.978,14.467a220.792,220.792,0,0,0,1.071,42.71H333.019Z" transform="translate(-101.586 -67.232)" fill="#f0cd95"/>
      </g>
      <g id="Group_11488" data-name="Group 11488" transform="translate(86.032 53.047)">
        <g id="Group_11425" data-name="Group 11425" transform="translate(82.196)">
          <g id="Group_11402" data-name="Group 11402">
            <path id="Path_8962" data-name="Path 8962" d="M518.126,216.314h3.808L502.58,193.48l-9.818,11.584v-4.015h-4.3v9.083l-5.24,6.182h3.808v12.358h-2.008v2.577h2.008v24.58h31.092v-24.58h2.582v-2.577h-2.582Z" transform="translate(-483.227 -193.48)" fill="#feeccb"/>
          </g>
          <g id="Group_11424" data-name="Group 11424" transform="translate(9.154 13.806)">
            <g id="Group_11409" data-name="Group 11409" transform="translate(5.215)">
              <g id="Group_11405" data-name="Group 11405">
                <g id="Group_11403" data-name="Group 11403">
                  <rect id="Rectangle_3711" data-name="Rectangle 3711" width="3.619" height="3.619" fill="#f0cd95"/>
                </g>
                <g id="Group_11404" data-name="Group 11404" transform="translate(4.315)">
                  <rect id="Rectangle_3712" data-name="Rectangle 3712" width="3.619" height="3.619" fill="#f0cd95"/>
                </g>
              </g>
              <g id="Group_11408" data-name="Group 11408" transform="translate(0 4.28)">
                <g id="Group_11406" data-name="Group 11406">
                  <rect id="Rectangle_3713" data-name="Rectangle 3713" width="3.619" height="3.619" fill="#f0cd95"/>
                </g>
                <g id="Group_11407" data-name="Group 11407" transform="translate(4.315)">
                  <rect id="Rectangle_3714" data-name="Rectangle 3714" width="3.619" height="3.619" fill="#f0cd95"/>
                </g>
              </g>
            </g>
            <g id="Group_11416" data-name="Group 11416" transform="translate(0 28.577)">
              <g id="Group_11412" data-name="Group 11412">
                <g id="Group_11410" data-name="Group 11410">
                  <rect id="Rectangle_3715" data-name="Rectangle 3715" width="3.619" height="3.619" fill="#f0cd95"/>
                </g>
                <g id="Group_11411" data-name="Group 11411" transform="translate(4.315)">
                  <rect id="Rectangle_3716" data-name="Rectangle 3716" width="3.619" height="3.619" fill="#f0cd95"/>
                </g>
              </g>
              <g id="Group_11415" data-name="Group 11415" transform="translate(0 4.28)">
                <g id="Group_11413" data-name="Group 11413">
                  <rect id="Rectangle_3717" data-name="Rectangle 3717" width="3.619" height="3.619" fill="#f0cd95"/>
                </g>
                <g id="Group_11414" data-name="Group 11414" transform="translate(4.315)">
                  <rect id="Rectangle_3718" data-name="Rectangle 3718" width="3.619" height="3.619" fill="#f0cd95"/>
                </g>
              </g>
            </g>
            <g id="Group_11423" data-name="Group 11423" transform="translate(13.678 28.577)">
              <g id="Group_11419" data-name="Group 11419">
                <g id="Group_11417" data-name="Group 11417">
                  <rect id="Rectangle_3719" data-name="Rectangle 3719" width="3.619" height="3.619" fill="#f0cd95"/>
                </g>
                <g id="Group_11418" data-name="Group 11418" transform="translate(4.315)">
                  <rect id="Rectangle_3720" data-name="Rectangle 3720" width="3.619" height="3.619" fill="#f0cd95"/>
                </g>
              </g>
              <g id="Group_11422" data-name="Group 11422" transform="translate(0 4.28)">
                <g id="Group_11420" data-name="Group 11420">
                  <rect id="Rectangle_3721" data-name="Rectangle 3721" width="3.619" height="3.619" fill="#f0cd95"/>
                </g>
                <g id="Group_11421" data-name="Group 11421" transform="translate(4.315)">
                  <rect id="Rectangle_3722" data-name="Rectangle 3722" width="3.619" height="3.619" fill="#f0cd95"/>
                </g>
              </g>
            </g>
          </g>
        </g>
        <g id="Group_11449" data-name="Group 11449" transform="translate(0 15.31)">
          <g id="Group_11426" data-name="Group 11426">
            <path id="Path_8963" data-name="Path 8963" d="M307.376,248.365h2.873l-14.6-17.226-7.407,8.739v-3.029H285V243.7l-3.953,4.664h2.873v9.324H282.4v1.944h1.515v18.545h23.457V259.633h1.948v-1.944h-1.948Z" transform="translate(-281.046 -231.139)" fill="#feeccb"/>
          </g>
          <g id="Group_11448" data-name="Group 11448" transform="translate(6.907 10.416)">
            <g id="Group_11433" data-name="Group 11433" transform="translate(3.935)">
              <g id="Group_11429" data-name="Group 11429">
                <g id="Group_11427" data-name="Group 11427">
                  <rect id="Rectangle_3723" data-name="Rectangle 3723" width="2.731" height="2.731" fill="#f0cd95"/>
                </g>
                <g id="Group_11428" data-name="Group 11428" transform="translate(3.256)">
                  <rect id="Rectangle_3724" data-name="Rectangle 3724" width="2.731" height="2.731" fill="#f0cd95"/>
                </g>
              </g>
              <g id="Group_11432" data-name="Group 11432" transform="translate(0 3.229)">
                <g id="Group_11430" data-name="Group 11430">
                  <rect id="Rectangle_3725" data-name="Rectangle 3725" width="2.731" height="2.731" fill="#f0cd95"/>
                </g>
                <g id="Group_11431" data-name="Group 11431" transform="translate(3.256)">
                  <rect id="Rectangle_3726" data-name="Rectangle 3726" width="2.731" height="2.731" fill="#f0cd95"/>
                </g>
              </g>
            </g>
            <g id="Group_11440" data-name="Group 11440" transform="translate(0 21.56)">
              <g id="Group_11436" data-name="Group 11436">
                <g id="Group_11434" data-name="Group 11434">
                  <rect id="Rectangle_3727" data-name="Rectangle 3727" width="2.731" height="2.731" fill="#f0cd95"/>
                </g>
                <g id="Group_11435" data-name="Group 11435" transform="translate(3.256)">
                  <rect id="Rectangle_3728" data-name="Rectangle 3728" width="2.731" height="2.731" fill="#f0cd95"/>
                </g>
              </g>
              <g id="Group_11439" data-name="Group 11439" transform="translate(0 3.229)">
                <g id="Group_11437" data-name="Group 11437">
                  <rect id="Rectangle_3729" data-name="Rectangle 3729" width="2.731" height="2.731" fill="#f0cd95"/>
                </g>
                <g id="Group_11438" data-name="Group 11438" transform="translate(3.256)">
                  <rect id="Rectangle_3730" data-name="Rectangle 3730" width="2.731" height="2.731" fill="#f0cd95"/>
                </g>
              </g>
            </g>
            <g id="Group_11447" data-name="Group 11447" transform="translate(10.319 21.56)">
              <g id="Group_11443" data-name="Group 11443">
                <g id="Group_11441" data-name="Group 11441">
                  <rect id="Rectangle_3731" data-name="Rectangle 3731" width="2.731" height="2.731" fill="#f0cd95"/>
                </g>
                <g id="Group_11442" data-name="Group 11442" transform="translate(3.256)">
                  <rect id="Rectangle_3732" data-name="Rectangle 3732" width="2.731" height="2.731" fill="#f0cd95"/>
                </g>
              </g>
              <g id="Group_11446" data-name="Group 11446" transform="translate(0 3.229)">
                <g id="Group_11444" data-name="Group 11444">
                  <rect id="Rectangle_3733" data-name="Rectangle 3733" width="2.731" height="2.731" fill="#f0cd95"/>
                </g>
                <g id="Group_11445" data-name="Group 11445" transform="translate(3.256)">
                  <rect id="Rectangle_3734" data-name="Rectangle 3734" width="2.731" height="2.731" fill="#f0cd95"/>
                </g>
              </g>
            </g>
          </g>
        </g>
        <g id="Group_11487" data-name="Group 11487" transform="translate(41.928 8.561)">
          <g id="Group_11450" data-name="Group 11450">
            <path id="Path_8964" data-name="Path 8964" d="M415.732,235.183h3.443l-17.5-20.645L392.8,225.012v-3.63h-3.884v8.213l-4.737,5.589h3.443v13.85h-1.41v1.817h1.41v19.57h28.112V250.85h1.232v-1.817h-1.232Z" transform="translate(-384.177 -214.538)" fill="#feeccb"/>
          </g>
          <g id="Group_11472" data-name="Group 11472" transform="translate(5.306 21.566)">
            <g id="Group_11457" data-name="Group 11457">
              <g id="Group_11453" data-name="Group 11453">
                <g id="Group_11451" data-name="Group 11451">
                  <rect id="Rectangle_3735" data-name="Rectangle 3735" width="2.855" height="2.855" fill="#f0cd95"/>
                </g>
                <g id="Group_11452" data-name="Group 11452" transform="translate(3.404)">
                  <rect id="Rectangle_3736" data-name="Rectangle 3736" width="2.855" height="2.855" fill="#f0cd95"/>
                </g>
              </g>
              <g id="Group_11456" data-name="Group 11456" transform="translate(0 3.377)">
                <g id="Group_11454" data-name="Group 11454">
                  <rect id="Rectangle_3737" data-name="Rectangle 3737" width="2.855" height="2.855" fill="#f0cd95"/>
                </g>
                <g id="Group_11455" data-name="Group 11455" transform="translate(3.404)">
                  <rect id="Rectangle_3738" data-name="Rectangle 3738" width="2.855" height="2.855" fill="#f0cd95"/>
                </g>
              </g>
            </g>
            <g id="Group_11464" data-name="Group 11464" transform="translate(8.915)">
              <g id="Group_11460" data-name="Group 11460">
                <g id="Group_11458" data-name="Group 11458">
                  <rect id="Rectangle_3739" data-name="Rectangle 3739" width="2.855" height="2.855" fill="#f0cd95"/>
                </g>
                <g id="Group_11459" data-name="Group 11459" transform="translate(3.405)">
                  <rect id="Rectangle_3740" data-name="Rectangle 3740" width="2.855" height="2.855" fill="#f0cd95"/>
                </g>
              </g>
              <g id="Group_11463" data-name="Group 11463" transform="translate(0 3.377)">
                <g id="Group_11461" data-name="Group 11461">
                  <rect id="Rectangle_3741" data-name="Rectangle 3741" width="2.855" height="2.855" fill="#f0cd95"/>
                </g>
                <g id="Group_11462" data-name="Group 11462" transform="translate(3.405)">
                  <rect id="Rectangle_3742" data-name="Rectangle 3742" width="2.855" height="2.855" fill="#f0cd95"/>
                </g>
              </g>
            </g>
            <g id="Group_11471" data-name="Group 11471" transform="translate(17.829)">
              <g id="Group_11467" data-name="Group 11467">
                <g id="Group_11465" data-name="Group 11465">
                  <rect id="Rectangle_3743" data-name="Rectangle 3743" width="2.855" height="2.855" fill="#f0cd95"/>
                </g>
                <g id="Group_11466" data-name="Group 11466" transform="translate(3.404)">
                  <rect id="Rectangle_3744" data-name="Rectangle 3744" width="2.855" height="2.855" fill="#f0cd95"/>
                </g>
              </g>
              <g id="Group_11470" data-name="Group 11470" transform="translate(0 3.377)">
                <g id="Group_11468" data-name="Group 11468">
                  <rect id="Rectangle_3745" data-name="Rectangle 3745" width="2.855" height="2.855" fill="#f0cd95"/>
                </g>
                <g id="Group_11469" data-name="Group 11469" transform="translate(3.404)">
                  <rect id="Rectangle_3746" data-name="Rectangle 3746" width="2.855" height="2.855" fill="#f0cd95"/>
                </g>
              </g>
            </g>
          </g>
          <g id="Group_11479" data-name="Group 11479" transform="translate(6.894 40.51)">
            <g id="Group_11475" data-name="Group 11475">
              <g id="Group_11473" data-name="Group 11473">
                <path id="Path_8965" data-name="Path 8965" d="M403.92,316.968h-2.786v-.028a2.758,2.758,0,0,1,2.758-2.758h.028Z" transform="translate(-401.134 -314.182)" fill="#f0cd95"/>
              </g>
              <g id="Group_11474" data-name="Group 11474" transform="translate(3.322)">
                <path id="Path_8966" data-name="Path 8966" d="M412.091,316.968H409.3v-2.786h.028a2.758,2.758,0,0,1,2.758,2.758Z" transform="translate(-409.305 -314.182)" fill="#f0cd95"/>
              </g>
            </g>
            <g id="Group_11478" data-name="Group 11478" transform="translate(0 3.295)">
              <g id="Group_11476" data-name="Group 11476">
                <rect id="Rectangle_3747" data-name="Rectangle 3747" width="2.786" height="2.786" fill="#f0cd95"/>
              </g>
              <g id="Group_11477" data-name="Group 11477" transform="translate(3.322)">
                <rect id="Rectangle_3748" data-name="Rectangle 3748" width="2.786" height="2.786" fill="#f0cd95"/>
              </g>
            </g>
          </g>
          <g id="Group_11486" data-name="Group 11486" transform="translate(21.781 40.51)">
            <g id="Group_11482" data-name="Group 11482">
              <g id="Group_11480" data-name="Group 11480">
                <path id="Path_8967" data-name="Path 8967" d="M440.539,316.968h-2.786v-.028a2.758,2.758,0,0,1,2.758-2.758h.028Z" transform="translate(-437.753 -314.182)" fill="#f0cd95"/>
              </g>
              <g id="Group_11481" data-name="Group 11481" transform="translate(3.322)">
                <path id="Path_8968" data-name="Path 8968" d="M448.71,316.968h-2.786v-2.786h.028a2.758,2.758,0,0,1,2.758,2.758Z" transform="translate(-445.924 -314.182)" fill="#f0cd95"/>
              </g>
            </g>
            <g id="Group_11485" data-name="Group 11485" transform="translate(0 3.295)">
              <g id="Group_11483" data-name="Group 11483">
                <rect id="Rectangle_3749" data-name="Rectangle 3749" width="2.786" height="2.786" fill="#f0cd95"/>
              </g>
              <g id="Group_11484" data-name="Group 11484" transform="translate(3.322)">
                <rect id="Rectangle_3750" data-name="Rectangle 3750" width="2.786" height="2.786" fill="#f0cd95"/>
              </g>
            </g>
          </g>
        </g>
      </g>
      <g id="Group_11496" data-name="Group 11496" transform="translate(193.623 0)">
        <g id="Group_11489" data-name="Group 11489">
          <rect id="Rectangle_3751" data-name="Rectangle 3751" width="55.356" height="129.165" fill="#feeccb"/>
        </g>
        <g id="Group_11490" data-name="Group 11490" transform="translate(8.195 36.112)">
          <rect id="Rectangle_3752" data-name="Rectangle 3752" width="47.328" height="90.059" fill="#3ac1b0"/>
        </g>
        <g id="Group_11491" data-name="Group 11491" transform="translate(10.624 38.593)">
          <rect id="Rectangle_3753" data-name="Rectangle 3753" width="42.33" height="87.615" fill="#14345a"/>
        </g>
        <g id="Group_11492" data-name="Group 11492" transform="translate(19.011 39.292)">
          <rect id="Rectangle_3754" data-name="Rectangle 3754" width="33.943" height="86.916" fill="#1e81ad"/>
        </g>
        <g id="Group_11493" data-name="Group 11493" transform="translate(4.279 126.342)">
          <rect id="Rectangle_3755" data-name="Rectangle 3755" width="51.201" height="3.064" fill="#f0cd95"/>
        </g>
        <g id="Group_11494" data-name="Group 11494" transform="translate(0.194 129.278)">
          <rect id="Rectangle_3756" data-name="Rectangle 3756" width="51.201" height="3.064" fill="#f0cd95"/>
        </g>
        <g id="Group_11495" data-name="Group 11495" transform="translate(14.206 70.873)">
          <path id="Path_8969" data-name="Path 8969" d="M583.255,238.638a1.311,1.311,0,1,1-1.311-1.31A1.311,1.311,0,0,1,583.255,238.638Z" transform="translate(-580.634 -237.328)" fill="#feeccb"/>
        </g>
      </g>
      <g id="Group_11499" data-name="Group 11499" transform="translate(187.01 14.452)">
        <g id="Group_11497" data-name="Group 11497">
          <path id="Path_8970" data-name="Path 8970" d="M557.851,112.759a14.212,14.212,0,1,0-24.88,9.386,95.073,95.073,0,0,1,8,10.2l2.665,4.017,1.9-2.863a85.486,85.486,0,0,1,8.509-11.069A14.152,14.152,0,0,0,557.851,112.759Z" transform="translate(-529.426 -98.548)" fill="#f4424f"/>
        </g>
        <g id="Group_11498" data-name="Group 11498" transform="translate(6.566 6.566)">
          <circle id="Ellipse_253" data-name="Ellipse 253" cx="7.646" cy="7.646" r="7.646" fill="#fff"/>
        </g>
      </g>
      <g id="Group_11505" data-name="Group 11505" transform="translate(197.24 87.054)">
        <g id="Group_11500" data-name="Group 11500" transform="translate(2.499 1.397)">
          <rect id="Rectangle_3757" data-name="Rectangle 3757" width="1.747" height="1.188" fill="#f4424f"/>
        </g>
        <g id="Group_11503" data-name="Group 11503" transform="translate(0.483 1.94)">
          <g id="Group_11501" data-name="Group 11501" transform="translate(0.809)">
            <path id="Path_8971" data-name="Path 8971" d="M561.915,290.521h-4.15v-6.927a1.692,1.692,0,0,1,1.692-1.692h.766a1.692,1.692,0,0,1,1.692,1.692Z" transform="translate(-557.765 -281.902)" fill="#f4424f"/>
          </g>
          <g id="Group_11502" data-name="Group 11502" transform="translate(0 4.32)">
            <rect id="Rectangle_3758" data-name="Rectangle 3758" width="6.384" height="2.043" fill="#14345a"/>
          </g>
        </g>
        <g id="Group_11504" data-name="Group 11504">
          <path id="Path_8972" data-name="Path 8972" d="M556.518,277.13v.558h-1.231a.829.829,0,0,0-.7.909h.454s-.035-.472.315-.541a3.555,3.555,0,0,1,1.161.265v.555h2.767V277.13Z" transform="translate(-554.588 -277.13)" fill="#3ac1b0"/>
        </g>
      </g>
      <g id="Group_11509" data-name="Group 11509" transform="translate(197.816 105.54)">
        <g id="Group_11506" data-name="Group 11506" transform="translate(4.194)">
          <rect id="Rectangle_3759" data-name="Rectangle 3759" width="25.022" height="20.828" fill="#14345a"/>
        </g>
        <g id="Group_11507" data-name="Group 11507">
          <rect id="Rectangle_3760" data-name="Rectangle 3760" width="25.022" height="20.828" fill="#3ac1b0"/>
        </g>
        <g id="Group_11508" data-name="Group 11508" transform="translate(5.764 4.753)">
          <path id="Path_8973" data-name="Path 8973" d="M582.35,341.438l-6.083-7.147-6.083,7.147h3.148v2.184H579.2v-2.184Z" transform="translate(-570.184 -334.291)" fill="#f0cd95"/>
        </g>
      </g>
      <g id="Group_11578" data-name="Group 11578" transform="translate(157.626 48.123)">
        <g id="Group_11525" data-name="Group 11525" transform="translate(10.772)">
          <g id="Group_11512" data-name="Group 11512" transform="translate(0 6.367)">
            <g id="Group_11510" data-name="Group 11510">
              <path id="Path_8974" data-name="Path 8974" d="M490.955,200.044c-2.1-.718-2.55-1.279-3.939-3.012l-3.371,5.068a21.6,21.6,0,0,0,6.019,4.252C489.359,204.082,489.692,201.553,490.955,200.044Z" transform="translate(-483.645 -197.032)" fill="#f9867d"/>
            </g>
            <g id="Group_11511" data-name="Group 11511" transform="translate(3.645 0.497)">
              <path id="Path_8975" data-name="Path 8975" d="M494.993,204a6.455,6.455,0,0,1,1.282-3.227,6.267,6.267,0,0,1-3.539-2.515A5.647,5.647,0,0,0,494.993,204Z" transform="translate(-492.611 -198.254)" fill="#14345a"/>
            </g>
          </g>
          <g id="Group_11515" data-name="Group 11515" transform="translate(2.454 0.387)">
            <g id="Group_11513" data-name="Group 11513" transform="translate(0.563 0.371)">
              <path id="Path_8976" data-name="Path 8976" d="M499.215,185.947a2.573,2.573,0,0,0-1.313-1.912,6.168,6.168,0,0,0-2.29-.7,4.184,4.184,0,0,0-3.011.385,3.37,3.37,0,0,0-1.155,1.65,6.77,6.77,0,0,0,.551,5.653,6.388,6.388,0,0,0,4.168,3.423,20.2,20.2,0,0,0,1.73-3.387c.11-.313-.057-.657,0-.828.07-.208.449-.417.515-.626.3-.936.407-1.512.645-2.466A3.762,3.762,0,0,0,499.215,185.947Z" transform="translate(-491.065 -183.234)" fill="#f9867d"/>
            </g>
            <g id="Group_11514" data-name="Group 11514" transform="translate(0 2.107)">
              <path id="Path_8977" data-name="Path 8977" d="M493.63,190.885a.62.62,0,0,1,.693-.438.708.708,0,0,1,.473.709,1.589,1.589,0,0,0,.045.89,10.021,10.021,0,0,1,1.388-2.195l-4.7-2.234a.884.884,0,0,0-.379-.114.667.667,0,0,0-.328.109,1.888,1.888,0,0,0-.8,1.334,9.357,9.357,0,0,0-.037,1.6,3.113,3.113,0,0,1-.309,1.556,5.274,5.274,0,0,0,2.71-.461,1.6,1.6,0,0,1,1.111-.246A3.109,3.109,0,0,1,493.63,190.885Z" transform="translate(-489.68 -187.503)" fill="#14345a"/>
            </g>
            <path id="Path_8978" data-name="Path 8978" d="M493.945,182.447a5,5,0,0,1,2.559.107,7.3,7.3,0,0,1,2.684,1.144,1.6,1.6,0,0,1,.609.744,1.925,1.925,0,0,1,.041.715l-.08,1.163a.695.695,0,0,1-.922.784,11.644,11.644,0,0,1-3.852-.746,13.229,13.229,0,0,0-2.34-1.064,1.089,1.089,0,0,1-.544-.213.815.815,0,0,1-.066-.862A2.95,2.95,0,0,1,493.945,182.447Z" transform="translate(-491.023 -182.321)" fill="#14345a"/>
          </g>
          <g id="Group_11520" data-name="Group 11520" transform="translate(3.196)">
            <g id="Group_11516" data-name="Group 11516">
              <path id="Path_8979" data-name="Path 8979" d="M496.525,181.786a15.74,15.74,0,0,1,2.576,1.182,1.187,1.187,0,0,1,.742,1.565,16.993,16.993,0,0,1-.747,2.584,14.585,14.585,0,0,1-6.593-1.842c-.479-.268-1-.659-1-1.209a1.646,1.646,0,0,1,.257-.748,4.4,4.4,0,0,1,.984-1.37,2.82,2.82,0,0,1,1.851-.577A6.194,6.194,0,0,1,496.525,181.786Z" transform="translate(-491.506 -181.37)" fill="#f4424f"/>
            </g>
            <g id="Group_11517" data-name="Group 11517" transform="translate(5.083 1.128)">
              <path id="Path_8980" data-name="Path 8980" d="M506.936,186.845a2.35,2.35,0,0,0,.11-1.262,1.68,1.68,0,0,0-.843-.944,10.933,10.933,0,0,0-1.2-.5,1.482,1.482,0,0,1,.258.92,3.547,3.547,0,0,1-.187.952,12.085,12.085,0,0,1-1.066,2.449,5.2,5.2,0,0,0,1.08.169,1.736,1.736,0,0,0,1.038-.287A2.607,2.607,0,0,0,506.936,186.845Z" transform="translate(-504.008 -184.144)" fill="#f2d525"/>
            </g>
            <g id="Group_11518" data-name="Group 11518" transform="translate(4.07 5.116)">
              <path id="Path_8981" data-name="Path 8981" d="M505.165,193.958c.5.021.534.349,2.246.941a3.136,3.136,0,0,1-2.89.442,24.017,24.017,0,0,1-3-1.308C502.7,194.315,503.944,193.907,505.165,193.958Z" transform="translate(-501.516 -193.954)" fill="#f4424f"/>
            </g>
            <g id="Group_11519" data-name="Group 11519" transform="translate(0.342 1.577)">
              <path id="Path_8982" data-name="Path 8982" d="M493.076,185.511a.282.282,0,0,0-.132-.175.287.287,0,0,0-.217-.084c-.077.015-.127.089-.168.157a1.2,1.2,0,0,0-.211.528.41.41,0,0,0,.29.438l.389-.708A.279.279,0,0,0,493.076,185.511Z" transform="translate(-492.348 -185.249)" fill="#14345a"/>
            </g>
          </g>
          <g id="Group_11524" data-name="Group 11524" transform="translate(5.717 5.973)">
            <g id="Group_11521" data-name="Group 11521" transform="translate(0.301 2.32)">
              <path id="Path_8983" data-name="Path 8983" d="M502.549,202.442c-.052-.2-.065-.473-.246-.576a.984.984,0,0,0-.494-.094c-.855.006-.958.088-1.813.1-.305.793-1.11,1.277-1.546,2.006.289.327.369,1.042.77,1.214a8.931,8.931,0,0,0,1.247.4.617.617,0,0,0,.415.011.611.611,0,0,0,.183-.155c.191-.213.3-.387.491-.6a6.093,6.093,0,0,0,.886-1.095A1.6,1.6,0,0,0,502.549,202.442Z" transform="translate(-498.449 -201.771)" fill="#fff"/>
            </g>
            <g id="Group_11522" data-name="Group 11522">
              <path id="Path_8984" data-name="Path 8984" d="M498.465,200.906a.146.146,0,0,1-.039-.005c-.285-.076-.477-.348-.571-.809a7.36,7.36,0,0,1,.278-3.927.153.153,0,0,1,.287.1,7.057,7.057,0,0,0-.267,3.764c.069.338.187.532.35.575a.153.153,0,0,1-.039.3Z" transform="translate(-497.708 -196.063)" fill="#fff"/>
            </g>
            <g id="Group_11523" data-name="Group 11523" transform="translate(1.666 0.453)">
              <path id="Path_8985" data-name="Path 8985" d="M502.32,199.755a.151.151,0,0,1-.131-.075,2.837,2.837,0,0,1-.208-2.4.152.152,0,0,1,.286.107,2.53,2.53,0,0,0,.185,2.141.153.153,0,0,1-.054.209A.156.156,0,0,1,502.32,199.755Z" transform="translate(-501.807 -197.179)" fill="#fff"/>
            </g>
          </g>
        </g>
        <g id="Group_11526" data-name="Group 11526" transform="translate(9.447 13.506)">
          <path id="Path_8986" data-name="Path 8986" d="M506.148,236.151a8.642,8.642,0,0,1-1.284-1.609,1.274,1.274,0,0,1-.18-.392.482.482,0,0,1,.08-.411,1.015,1.015,0,0,1,.535-.225.854.854,0,0,0,.5-.348.509.509,0,0,0-.023-.586c-.709.354-1.577.025-2.345.22a5.032,5.032,0,0,0-1.014.463,8.742,8.742,0,0,1-1.677-.766l-.012.026c-6.174-3.919-12.764-13.093-15.484-17.184-3.215-1.608-5.172-.559-4.823,2.516,1.911,11.146,11.994,16.381,18.844,17.864l-.067.148c.581.143,1.151.322,1.716.517a6.949,6.949,0,0,0,1.752,1.257,1.126,1.126,0,0,0,.789.157c.244-.07.43-.289.681-.33.2-.032.4.051.591.014.313-.061.5-.407.8-.513a2.579,2.579,0,0,1,.484-.064.431.431,0,0,0,.376-.269C506.436,236.454,506.283,236.284,506.148,236.151Z" transform="translate(-480.386 -214.592)" fill="#14345a"/>
        </g>
        <g id="Group_11534" data-name="Group 11534" transform="translate(29.566 27.223)">
          <g id="Group_11529" data-name="Group 11529" transform="translate(0 2.796)">
            <g id="Group_11527" data-name="Group 11527">
              <rect id="Rectangle_3761" data-name="Rectangle 3761" width="17.299" height="2.866" fill="#f4424f"/>
            </g>
            <g id="Group_11528" data-name="Group 11528" transform="translate(0 2.167)">
              <rect id="Rectangle_3762" data-name="Rectangle 3762" width="17.299" height="0.699" fill="#14345a"/>
            </g>
          </g>
          <g id="Group_11532" data-name="Group 11532" transform="translate(2.551)">
            <g id="Group_11530" data-name="Group 11530">
              <rect id="Rectangle_3763" data-name="Rectangle 3763" width="17.299" height="2.866" fill="#f4424f"/>
            </g>
            <g id="Group_11531" data-name="Group 11531" transform="translate(0 2.079)">
              <rect id="Rectangle_3764" data-name="Rectangle 3764" width="17.299" height="0.786" fill="#14345a"/>
            </g>
          </g>
          <g id="Group_11533" data-name="Group 11533" transform="translate(0.82 5.452)">
            <rect id="Rectangle_3765" data-name="Rectangle 3765" width="17.299" height="2.866" fill="#f4424f"/>
          </g>
        </g>
        <g id="Group_11548" data-name="Group 11548" transform="translate(2.025 36.615)">
          <g id="Group_11546" data-name="Group 11546" transform="translate(5.754 47.242)">
            <g id="Group_11535" data-name="Group 11535" transform="translate(0.007 3.43)">
              <path id="Path_8987" data-name="Path 8987" d="M485.237,396.681q-.032-.3-.065-.607a73.917,73.917,0,0,1-7.884.169,1.861,1.861,0,0,0-.535.033c-.174.046-.29-.052-.377.117s-.123.608.015.732c1.394.218,2.813.129,4.22.207a20.91,20.91,0,0,0,2.38.1A4.01,4.01,0,0,0,485.237,396.681Z" transform="translate(-476.3 -396.074)" fill="#fff"/>
            </g>
            <g id="Group_11536" data-name="Group 11536">
              <path id="Path_8988" data-name="Path 8988" d="M481.064,391.982a8.068,8.068,0,0,0,4.188-.592,1.59,1.59,0,0,0-.9-1.311,5.314,5.314,0,0,0-1.6-.452,3.778,3.778,0,0,1-1.561-.551,1.425,1.425,0,0,1-.626-1.44,24.517,24.517,0,0,1-3.813.111,12.885,12.885,0,0,0-.457,3.973Q478.677,391.883,481.064,391.982Z" transform="translate(-476.284 -387.636)" fill="#14345a"/>
            </g>
            <g id="Group_11545" data-name="Group 11545" transform="translate(3.944 1.323)">
              <g id="Group_11538" data-name="Group 11538">
                <g id="Group_11537" data-name="Group 11537">
                  <path id="Path_8989" data-name="Path 8989" d="M486.08,390.9a.248.248,0,0,1,.194.049,7.179,7.179,0,0,0,3.152.94,1.023,1.023,0,0,1-.771.35,3.035,3.035,0,0,1-.861-.132,3.1,3.1,0,0,1-1.708-.843.393.393,0,0,1-.1-.188A.161.161,0,0,1,486.08,390.9Z" transform="translate(-485.986 -390.891)" fill="#d62d41"/>
                </g>
              </g>
              <g id="Group_11540" data-name="Group 11540" transform="translate(0.346 0.077)">
                <g id="Group_11539" data-name="Group 11539">
                  <path id="Path_8990" data-name="Path 8990" d="M487.018,392.081a.166.166,0,0,1-.147-.263,5.052,5.052,0,0,1,.618-.694.166.166,0,1,1,.226.241,4.755,4.755,0,0,0-.577.649A.164.164,0,0,1,487.018,392.081Z" transform="translate(-486.838 -391.079)" fill="#fff"/>
                </g>
              </g>
              <g id="Group_11542" data-name="Group 11542" transform="translate(1.046 0.408)">
                <g id="Group_11541" data-name="Group 11541">
                  <path id="Path_8991" data-name="Path 8991" d="M488.739,392.837a.166.166,0,0,1-.155-.252,3.191,3.191,0,0,1,.531-.646.165.165,0,0,1,.226.241,2.907,2.907,0,0,0-.475.579A.163.163,0,0,1,488.739,392.837Z" transform="translate(-488.559 -391.894)" fill="#fff"/>
                </g>
              </g>
              <g id="Group_11544" data-name="Group 11544" transform="translate(1.89 0.597)">
                <g id="Group_11543" data-name="Group 11543">
                  <path id="Path_8992" data-name="Path 8992" d="M490.814,393.211a.164.164,0,0,1-.089-.017.166.166,0,0,1-.073-.223,2.432,2.432,0,0,1,.393-.561.166.166,0,1,1,.242.227,2.059,2.059,0,0,0-.339.483A.167.167,0,0,1,490.814,393.211Z" transform="translate(-490.634 -392.359)" fill="#fff"/>
                </g>
              </g>
            </g>
          </g>
          <g id="Group_11547" data-name="Group 11547">
            <path id="Path_8993" data-name="Path 8993" d="M468.213,320.355h5.5c-.377-15.659.138-31.341,1.314-46.95a18.651,18.651,0,0,1-9.173-1.825l-2.468-.146c-2.3,8.819-1.068,18.294.772,27.25C465.634,305.877,467.5,313.049,468.213,320.355Z" transform="translate(-462.129 -271.434)" fill="#14345a"/>
          </g>
        </g>
        <g id="Group_11567" data-name="Group 11567" transform="translate(0.81 36.615)">
          <g id="Group_11560" data-name="Group 11560" transform="translate(3.17 47.481)">
            <g id="Group_11549" data-name="Group 11549" transform="translate(0 3.813)">
              <path id="Path_8994" data-name="Path 8994" d="M476.562,398.209q-.035-.3-.07-.607c-2.825.194-5.659.256-8.489.169a2.133,2.133,0,0,0-.576.033c-.187.046-.312-.052-.405.118s-.133.608.015.732c1.5.218,3.029.129,4.544.207a24.22,24.22,0,0,0,2.563.1A4.542,4.542,0,0,0,476.562,398.209Z" transform="translate(-466.939 -397.602)" fill="#fff"/>
            </g>
            <g id="Group_11550" data-name="Group 11550" transform="translate(0.044)">
              <path id="Path_8995" data-name="Path 8995" d="M472.15,392.863a8.61,8.61,0,0,0,4.47-.632,1.7,1.7,0,0,0-.961-1.4,5.693,5.693,0,0,0-1.708-.482,4.033,4.033,0,0,1-1.666-.588,1.522,1.522,0,0,1-.668-1.538,26.16,26.16,0,0,1-4.07.118,13.76,13.76,0,0,0-.487,4.24Q469.6,392.757,472.15,392.863Z" transform="translate(-467.048 -388.224)" fill="#14345a"/>
            </g>
            <g id="Group_11559" data-name="Group 11559" transform="translate(4.424 1.049)">
              <g id="Group_11552" data-name="Group 11552">
                <g id="Group_11551" data-name="Group 11551">
                  <path id="Path_8996" data-name="Path 8996" d="M477.927,390.809a.249.249,0,0,1,.189.065,7.176,7.176,0,0,0,3.062,1.2,1.023,1.023,0,0,1-.8.284,3.045,3.045,0,0,1-.847-.2,3.1,3.1,0,0,1-1.631-.983.39.39,0,0,1-.083-.2A.161.161,0,0,1,477.927,390.809Z" transform="translate(-477.82 -390.805)" fill="#d62d41"/>
                </g>
              </g>
              <g id="Group_11554" data-name="Group 11554" transform="translate(0.282 0.158)">
                <g id="Group_11553" data-name="Group 11553">
                  <path id="Path_8997" data-name="Path 8997" d="M478.68,392.144a.166.166,0,0,1-.125-.275,5.108,5.108,0,0,1,.673-.64.166.166,0,0,1,.206.26,4.761,4.761,0,0,0-.63.6A.164.164,0,0,1,478.68,392.144Z" transform="translate(-478.514 -391.193)" fill="#fff"/>
                </g>
              </g>
              <g id="Group_11556" data-name="Group 11556" transform="translate(0.956 0.538)">
                <g id="Group_11555" data-name="Group 11555">
                  <path id="Path_8998" data-name="Path 8998" d="M480.338,393.029a.166.166,0,0,1-.133-.265,3.214,3.214,0,0,1,.583-.6.166.166,0,1,1,.205.26,2.887,2.887,0,0,0-.522.537A.165.165,0,0,1,480.338,393.029Z" transform="translate(-480.173 -392.129)" fill="#fff"/>
                </g>
              </g>
              <g id="Group_11558" data-name="Group 11558" transform="translate(1.789 0.786)">
                <g id="Group_11557" data-name="Group 11557">
                  <path id="Path_8999" data-name="Path 8999" d="M482.386,393.559a.166.166,0,0,1-.141-.253,2.426,2.426,0,0,1,.438-.526.166.166,0,0,1,.222.247,2.067,2.067,0,0,0-.378.454A.166.166,0,0,1,482.386,393.559Z" transform="translate(-482.22 -392.738)" fill="#fff"/>
                </g>
              </g>
            </g>
          </g>
          <g id="Group_11566" data-name="Group 11566">
            <g id="Group_11561" data-name="Group 11561">
              <path id="Path_9000" data-name="Path 9000" d="M462.22,320.355H468.7c-.295-15.829,2.163-31.341,3.338-46.95a18.652,18.652,0,0,1-9.173-1.825l-2.468-.146c-2.3,8.819-1.068,18.294.772,27.25C462.646,305.877,462.072,312.772,462.22,320.355Z" transform="translate(-459.141 -271.434)" fill="#f4424f"/>
            </g>
            <g id="Group_11562" data-name="Group 11562" transform="translate(7.037 1.727)">
              <path id="Path_9001" data-name="Path 9001" d="M482.309,275.926a18.331,18.331,0,0,1-4.2-.244c-1.227,15.573-2.606,31.573-.757,47.194h1.619C478.676,307.048,481.133,291.535,482.309,275.926Z" transform="translate(-476.451 -275.682)" fill="#d62d41"/>
            </g>
            <g id="Group_11563" data-name="Group 11563" transform="translate(0.906 3.276)">
              <rect id="Rectangle_3766" data-name="Rectangle 3766" width="12.737" height="1.472" fill="#14345a"/>
            </g>
            <g id="Group_11564" data-name="Group 11564" transform="translate(4.367 3.018)">
              <rect id="Rectangle_3767" data-name="Rectangle 3767" width="0.626" height="1.988" fill="#f4424f"/>
            </g>
            <g id="Group_11565" data-name="Group 11565" transform="translate(10.753 3.018)">
              <rect id="Rectangle_3768" data-name="Rectangle 3768" width="0.626" height="1.988" fill="#f4424f"/>
            </g>
          </g>
        </g>
        <g id="Group_11573" data-name="Group 11573" transform="translate(0 10.26)">
          <g id="Group_11568" data-name="Group 11568" transform="translate(0 0.61)">
            <path id="Path_9002" data-name="Path 9002" d="M467.7,208.239c-4.316,4.119-6.3,7.762-7.945,13.5a79.74,79.74,0,0,0-2.6,14.242,1.7,1.7,0,0,0,1.888,1.868,35.346,35.346,0,0,1,11.825.137,1.37,1.37,0,0,0,1.635-1.36c-.007-5.964,3.3-12.551,3.187-15.407a37.175,37.175,0,0,0-1.037-6.239c-.109-.6-.226-1.282-.321-1.99a26.376,26.376,0,0,1-6.533-4.878Z" transform="translate(-457.149 -208.107)" fill="#f4424f"/>
          </g>
          <g id="Group_11569" data-name="Group 11569" transform="translate(7.449 1.573)">
            <path id="Path_9003" data-name="Path 9003" d="M485.53,216.381c-.109-.6-.226-1.282-.321-1.99a24.212,24.212,0,0,1-5.508-3.914c-3.911,4.161.373,9.819-.845,14.691-.839,3.774-3.355,6.71-2.516,10.484,0,.419.42,1.677.42,2.1a9.883,9.883,0,0,1-1.29,1.078,28.974,28.974,0,0,1,6.275.561,1.37,1.37,0,0,0,1.635-1.36c-.007-5.964,3.3-12.551,3.187-15.407A37.174,37.174,0,0,0,485.53,216.381Z" transform="translate(-475.47 -210.477)" fill="#d62d41"/>
          </g>
          <g id="Group_11570" data-name="Group 11570" transform="translate(8.437 4.655)">
            <path id="Path_9004" data-name="Path 9004" d="M478,222.366a17.834,17.834,0,0,0,7.5,12.131l1.123-3.585a18.509,18.509,0,0,1-7.267-12.856,2.932,2.932,0,0,0-1.337,1.917A6.544,6.544,0,0,0,478,222.366Z" transform="translate(-477.903 -218.057)" fill="#14345a"/>
          </g>
          <g id="Group_11571" data-name="Group 11571" transform="translate(9.952)">
            <path id="Path_9005" data-name="Path 9005" d="M482.941,206.607l-1.312,1.156a68.8,68.8,0,0,1,6.347,5.736,2.073,2.073,0,0,1,.725-1.547c.139.239.16,1.04.3,1.279a3.045,3.045,0,0,0,.119-2.5,5.4,5.4,0,0,0-1.562-1.264Z" transform="translate(-481.629 -206.607)" fill="#fff"/>
          </g>
          <g id="Group_11572" data-name="Group 11572" transform="translate(3.267 5.679)">
            <path id="Path_9006" data-name="Path 9006" d="M469.114,220.785a.25.25,0,0,0-.37-.178,1.379,1.379,0,0,0-.414.409,18.414,18.414,0,0,0-3.053,6.72,2.427,2.427,0,0,0-.091.622c.007.2.081.385.2.387s.233-.153.332-.3A27.936,27.936,0,0,0,469,221.625,1.585,1.585,0,0,0,469.114,220.785Z" transform="translate(-465.186 -220.576)" fill="#f2d525"/>
          </g>
        </g>
        <g id="Group_11577" data-name="Group 11577" transform="translate(8.837 13.964)">
          <g id="Group_11574" data-name="Group 11574">
            <path id="Path_9007" data-name="Path 9007" d="M483.749,216.465c-3.215-1.607-5.172-.559-4.823,2.516,2.1,12.231,14.039,17.347,20.745,18.194,1.188-.059,1.645-1.605,1.873-2.309C494.787,232.135,486.813,221.072,483.749,216.465Z" transform="translate(-478.886 -215.717)" fill="#f4424f"/>
          </g>
          <g id="Group_11575" data-name="Group 11575" transform="translate(18.817 17.906)">
            <path id="Path_9008" data-name="Path 9008" d="M532.115,263.414a8.645,8.645,0,0,1-1.284-1.609,1.275,1.275,0,0,1-.18-.392.481.481,0,0,1,.081-.411,1.012,1.012,0,0,1,.535-.225.854.854,0,0,0,.5-.348.509.509,0,0,0-.023-.586c-.709.354-1.577.025-2.345.22a5.034,5.034,0,0,0-1.013.463,8.743,8.743,0,0,1-1.677-.766l-1.542,3.37c.581.143,1.151.322,1.716.517a6.948,6.948,0,0,0,1.752,1.257,1.126,1.126,0,0,0,.789.157c.244-.07.43-.289.681-.33.2-.032.4.051.591.014.313-.061.5-.407.8-.513a2.583,2.583,0,0,1,.484-.064.431.431,0,0,0,.376-.269C532.4,263.716,532.25,263.547,532.115,263.414Z" transform="translate(-525.17 -259.76)" fill="#fff"/>
          </g>
          <g id="Group_11576" data-name="Group 11576" transform="translate(1.494 2.629)">
            <path id="Path_9009" data-name="Path 9009" d="M482.608,223.979a1.96,1.96,0,0,0,.059,1.073,2,2,0,0,0,2.067,1.33,2.135,2.135,0,0,0,1.755-1.477,2.218,2.218,0,0,0-.618-2.22,1.759,1.759,0,0,0-1.534-.467A2.355,2.355,0,0,0,482.608,223.979Z" transform="translate(-482.56 -222.184)" fill="#f2d525"/>
          </g>
        </g>
      </g>
      <g id="Group_11622" data-name="Group 11622" transform="translate(0 21.555)">
        <g id="Group_11579" data-name="Group 11579">
          <path id="Path_9010" data-name="Path 9010" d="M104.358,225.069,74.665,237.818c-3.155,1.259-5.7-.584-5.162-3.4V119.725a3.7,3.7,0,0,1,5.162-3.4l29.693,12.749a2.794,2.794,0,0,1,1.691,2.567V222.5A2.793,2.793,0,0,1,104.358,225.069Z" transform="translate(-69.431 -116.02)" fill="#14345a"/>
        </g>
        <g id="Group_11580" data-name="Group 11580" transform="translate(3.338 1.877)">
          <path id="Path_9011" data-name="Path 9011" d="M108.964,226.6,79.8,239.263a1.546,1.546,0,0,1-2.154-1.436V122.094c0-1.122,2.316-1.76,3.335-1.317l27.987,12.546a.763.763,0,0,1,.457.7V225.9A.764.764,0,0,1,108.964,226.6Z" transform="translate(-77.641 -120.636)" fill="#1e81ad"/>
        </g>
        <g id="Group_11583" data-name="Group 11583" transform="translate(3.827 2.366)">
          <g id="Group_11581" data-name="Group 11581">
            <path id="Path_9012" data-name="Path 9012" d="M110.167,226.617,81,239.14a1.545,1.545,0,0,1-2.155-1.42V123.282c0-1.109,2.316-1.74,3.336-1.3l27.987,12.406a.755.755,0,0,1,.457.694v90.844A.755.755,0,0,1,110.167,226.617Z" transform="translate(-78.844 -121.839)" fill="#fff"/>
          </g>
          <g id="Group_11582" data-name="Group 11582" transform="translate(1.678 0.189)">
            <path id="Path_9013" data-name="Path 9013" d="M112.847,225.539,85.026,237.866a1.478,1.478,0,0,1-2.055-1.4V123.826a1.478,1.478,0,0,1,2.055-1.4l27.821,12.327a.745.745,0,0,1,.436.683v89.418A.744.744,0,0,1,112.847,225.539Z" transform="translate(-82.971 -122.303)" fill="#3ac1b0"/>
          </g>
        </g>
        <g id="Group_11595" data-name="Group 11595" transform="translate(10.477 46.662)">
          <g id="Group_11584" data-name="Group 11584" transform="translate(0.262 0.379)">
            <path id="Path_9014" data-name="Path 9014" d="M118.281,286.425l-22.436,6.81V231.728l22.436,4.164Z" transform="translate(-95.845 -231.728)" fill="#feeccb"/>
          </g>
          <g id="Group_11585" data-name="Group 11585" transform="translate(14.037 4.695)">
            <path id="Path_9015" data-name="Path 9015" d="M129.728,242.344v51.332l7.972-2.42V243.823Z" transform="translate(-129.728 -242.344)" fill="#14345a"/>
          </g>
          <g id="Group_11586" data-name="Group 11586" transform="translate(0.95 2.267)">
            <path id="Path_9016" data-name="Path 9016" d="M109.891,238.662,97.538,236.37V294.1l12.353-3.749Z" transform="translate(-97.538 -236.37)" fill="#14345a"/>
          </g>
          <g id="Group_11587" data-name="Group 11587" transform="translate(0.435 14.7)">
            <path id="Path_9017" data-name="Path 9017" d="M96.418,271.467h-.07l-.078-.391,9.995-4.124.155.376-9.995,4.124-.008-.018Z" transform="translate(-96.271 -266.952)" fill="#feeccb"/>
          </g>
          <g id="Group_11594" data-name="Group 11594">
            <g id="Group_11588" data-name="Group 11588">
              <path id="Path_9018" data-name="Path 9018" d="M111,248.04l-4.961.338L95.2,230.795l5.185.686Z" transform="translate(-95.201 -230.795)" fill="#f2d525"/>
            </g>
            <g id="Group_11589" data-name="Group 11589" transform="translate(4.785 0.633)">
              <path id="Path_9019" data-name="Path 9019" d="M122.036,248.688l-4.428.3L106.97,232.352l4.67.618Z" transform="translate(-106.97 -232.352)" fill="#f4424f"/>
            </g>
            <g id="Group_11590" data-name="Group 11590" transform="translate(9.093 1.203)">
              <path id="Path_9020" data-name="Path 9020" d="M131.961,249.272l-3.977.271-10.416-15.79,4.228.559Z" transform="translate(-117.568 -233.753)" fill="#f2d525"/>
            </g>
            <g id="Group_11591" data-name="Group 11591" transform="translate(12.994 1.719)">
              <path id="Path_9021" data-name="Path 9021" d="M140.939,249.8l-3.592.245-10.186-15.024,3.846.509Z" transform="translate(-127.162 -235.022)" fill="#f4424f"/>
            </g>
            <g id="Group_11592" data-name="Group 11592" transform="translate(16.541 2.188)">
              <path id="Path_9022" data-name="Path 9022" d="M149.1,250.282l-3.26.222-9.952-14.329,3.514.465Z" transform="translate(-135.888 -236.176)" fill="#f2d525"/>
            </g>
            <g id="Group_11593" data-name="Group 11593" transform="translate(19.782 2.616)">
              <path id="Path_9023" data-name="Path 9023" d="M156.547,250.723l-2.971.2-9.718-13.695,3.223.426Z" transform="translate(-143.858 -237.23)" fill="#f4424f"/>
            </g>
          </g>
        </g>
        <g id="Group_11598" data-name="Group 11598" transform="translate(9.661 26.099)">
          <g id="Group_11596" data-name="Group 11596">
            <path id="Path_9024" data-name="Path 9024" d="M114.133,196.09l-19.6-3.332a1.607,1.607,0,0,1-1.338-1.585v-9.351a1.607,1.607,0,0,1,1.963-1.567l19.575,4.443a1.608,1.608,0,0,1,1.252,1.563l.025,8.239A1.608,1.608,0,0,1,114.133,196.09Z" transform="translate(-93.195 -180.215)" fill="#feeccb"/>
          </g>
          <g id="Group_11597" data-name="Group 11597" transform="translate(1.933 3.29)">
            <text id="ORDER" transform="translate(0 4)" fill="#14345a" font-size="4" font-family="Montserrat-Bold, Montserrat" font-weight="700"><tspan x="0" y="0">ORDER</tspan></text>
          </g>
        </g>
        <g id="Group_11616" data-name="Group 11616" transform="translate(7.497 6.571)">
          <g id="Group_11602" data-name="Group 11602" transform="translate(23.019 8.378)">
            <g id="Group_11601" data-name="Group 11601">
              <g id="Group_11600" data-name="Group 11600">
                <g id="Group_11599" data-name="Group 11599">
                  <path id="Path_9025" data-name="Path 9025" d="M144.868,152.79v.462l-.377-.139,0,1.222.377.139v.462l3.65,1.342,0-2.146Z" transform="translate(-144.492 -152.79)" fill="#14345a"/>
                </g>
              </g>
            </g>
          </g>
          <g id="Group_11615" data-name="Group 11615">
            <g id="Group_11605" data-name="Group 11605" transform="translate(0 0.72)">
              <g id="Group_11604" data-name="Group 11604">
                <g id="Group_11603" data-name="Group 11603">
                  <path id="Path_9026" data-name="Path 9026" d="M88.572,135.134l-.7-.221v-.961l.7.221Z" transform="translate(-87.871 -133.952)" fill="#14345a"/>
                </g>
              </g>
            </g>
            <g id="Group_11608" data-name="Group 11608" transform="translate(1.151 0.547)">
              <g id="Group_11607" data-name="Group 11607">
                <g id="Group_11606" data-name="Group 11606">
                  <path id="Path_9027" data-name="Path 9027" d="M91.4,135.246l-.7-.221,0-1.5.7.221Z" transform="translate(-90.703 -133.527)" fill="#14345a"/>
                </g>
              </g>
            </g>
            <g id="Group_11611" data-name="Group 11611" transform="translate(2.302 0.195)">
              <g id="Group_11610" data-name="Group 11610">
                <g id="Group_11609" data-name="Group 11609">
                  <path id="Path_9028" data-name="Path 9028" d="M94.237,135.1l-.7-.221,0-2.213.7.221Z" transform="translate(-93.534 -132.662)" fill="#14345a"/>
                </g>
              </g>
            </g>
            <g id="Group_11614" data-name="Group 11614" transform="translate(3.453)">
              <g id="Group_11613" data-name="Group 11613">
                <g id="Group_11612" data-name="Group 11612">
                  <path id="Path_9029" data-name="Path 9029" d="M97.069,135.175l-.7-.221,0-2.772.7.221Z" transform="translate(-96.365 -132.182)" fill="#14345a"/>
                </g>
              </g>
            </g>
          </g>
        </g>
        <g id="Group_11617" data-name="Group 11617" transform="translate(19.262 7.634)">
          <path id="Path_9030" data-name="Path 9030" d="M125.289,138.437c-2.846-1.139-5.634-2.5-8.479-3.64l1.946,3.3,5.117,1.718A8.789,8.789,0,0,0,125.289,138.437Z" transform="translate(-116.81 -134.797)" fill="#14345a"/>
        </g>
        <g id="Group_11621" data-name="Group 11621" transform="translate(0.82 14.563)">
          <g id="Group_11618" data-name="Group 11618" transform="translate(0.582 6.098)">
            <path id="Path_9031" data-name="Path 9031" d="M74.126,179.125V167.464a.624.624,0,1,0-1.248,0v11.661Z" transform="translate(-72.878 -166.84)" fill="#1e81ad"/>
          </g>
          <g id="Group_11619" data-name="Group 11619" transform="translate(0.582 20.111)">
            <path id="Path_9032" data-name="Path 9032" d="M72.878,201.309v12.237a.624.624,0,1,0,1.248,0V201.309Z" transform="translate(-72.878 -201.309)" fill="#1e81ad"/>
          </g>
          <g id="Group_11620" data-name="Group 11620">
            <circle id="Ellipse_254" data-name="Ellipse 254" cx="1.048" cy="1.048" r="1.048" fill="#1e81ad"/>
          </g>
        </g>
      </g>
      <g id="Group_11680" data-name="Group 11680" transform="translate(25.178 77.37)">
        <g id="Group_11623" data-name="Group 11623" transform="translate(0 43.341)">
          <path id="Path_9033" data-name="Path 9033" d="M182.174,359.92l-3.73,0c-26,0-47.084.264-47.084.59s21.08.59,47.084.59l3.73,0Z" transform="translate(-131.361 -359.918)" fill="#f4424f"/>
        </g>
        <g id="Group_11624" data-name="Group 11624" transform="translate(34.388 39.703)">
          <path id="Path_9034" data-name="Path 9034" d="M234.468,350.969h-1.359c-9.478,0-17.162.2-17.162.454s7.684.454,17.162.454l1.359,0Z" transform="translate(-215.946 -350.968)" fill="#f4424f"/>
        </g>
        <g id="Group_11625" data-name="Group 11625" transform="translate(24.323 29.374)">
          <path id="Path_9035" data-name="Path 9035" d="M218.1,325.562h-1.975c-13.771,0-24.934.165-24.934.369s11.163.369,24.934.369H218.1Z" transform="translate(-191.19 -325.561)" fill="#f4424f"/>
        </g>
        <g id="Group_11679" data-name="Group 11679" transform="translate(39.186)">
          <g id="Group_11628" data-name="Group 11628" transform="translate(9.254 33.886)">
            <g id="Group_11626" data-name="Group 11626">
              <circle id="Ellipse_255" data-name="Ellipse 255" cx="10.164" cy="10.164" r="10.164" fill="#14345a"/>
            </g>
            <g id="Group_11627" data-name="Group 11627" transform="translate(3.572 3.572)">
              <circle id="Ellipse_256" data-name="Ellipse 256" cx="6.592" cy="6.592" r="6.592" fill="#3ac1b0"/>
            </g>
          </g>
          <g id="Group_11629" data-name="Group 11629" transform="translate(50.077 9.258)">
            <path id="Path_9036" data-name="Path 9036" d="M356.113,310.519c1.153-1.249,1.54-3.084,2.145-4.732a15.251,15.251,0,0,1,6.172-7.7,17.355,17.355,0,0,0,2.192-1.409,3.6,3.6,0,0,0,1.34-2.282,5.434,5.434,0,0,0-.337-2.129c-1.35-4.509-2.7-9.023-4.32-13.425-.419-1.138-1-2.408-2.086-2.7a3.332,3.332,0,0,0-2.166.429c-2.127.959-4.375,2.1-5.538,4.276a10.454,10.454,0,0,0-.929,5.223c.117,3.926,1.122,7.751,1.566,11.649s.252,8.116-1.768,11.36c-.446.716-.972,1.368-1.459,2.053A4.034,4.034,0,0,0,356.113,310.519Z" transform="translate(-350.925 -276.082)" fill="#14345a"/>
          </g>
          <g id="Group_11630" data-name="Group 11630" transform="translate(6.893 23.193)">
            <path id="Path_9037" data-name="Path 9037" d="M272.913,310.535c1.725.2,3.647.74,4.261,2.013.511,1.06-.078,2.224-.494,3.309a10.969,10.969,0,0,0-.365,6.812,6.121,6.121,0,0,0,3.142,4.125,12.6,12.6,0,0,0,5.432.769c2.682-.014,5.6-.091,7.662-1.429.888,2.056-.8,4.359-3.18,5.488s-5.255,1.354-8.029,1.511c-10.121.574-20.285.609-30.422.263-1.66-.057-3.467-.17-4.69-1.047-1.5-1.076-1.562-2.873-1.518-4.462.1-3.646.283-7.506,2.827-10.565a15.739,15.739,0,0,1,6.532-4.3,40.98,40.98,0,0,1,8.236-2A39.561,39.561,0,0,1,272.913,310.535Z" transform="translate(-244.703 -310.357)" fill="#f4424f"/>
          </g>
          <g id="Group_11631" data-name="Group 11631" transform="translate(38.181 38.499)">
            <path id="Path_9038" data-name="Path 9038" d="M327.58,354.395a18.842,18.842,0,0,0,6.082-1.018,6.378,6.378,0,0,0,4.034-4.368c.075-.381.031-.886-.339-1a5.723,5.723,0,0,1-4.284,3.1,31.092,31.092,0,0,1-5.491.263,8.884,8.884,0,0,0-5.216,1.452,1.875,1.875,0,0,0-.627.721.827.827,0,0,0,.129.9,1.28,1.28,0,0,0,.984.218Z" transform="translate(-321.663 -348.006)" fill="#14345a"/>
          </g>
          <g id="Group_11632" data-name="Group 11632" transform="translate(12.139 25.081)">
            <path id="Path_9039" data-name="Path 9039" d="M264.2,316.981a35.661,35.661,0,0,1,15.028-1.848c1.1.088,2.387.348,2.842,1.354a3.586,3.586,0,0,1-.028,2.177,18.08,18.08,0,0,0,1.02,10.47,11.25,11.25,0,0,1,.888,2.512,2.692,2.692,0,0,1-.72,2.456,3.869,3.869,0,0,1-2.613.618,105.24,105.24,0,0,1-17.381-1.076c-1.738-.3-3.611-.785-4.675-2.193-1.04-1.377-1.018-3.259-.894-4.98.172-2.381.517-4.907,2.056-6.732A10.289,10.289,0,0,1,264.2,316.981Z" transform="translate(-257.606 -315.001)" fill="#d62d41"/>
          </g>
          <g id="Group_11636" data-name="Group 11636" transform="translate(54.669)">
            <g id="Group_11633" data-name="Group 11633" transform="translate(6.94 0.65)">
              <path id="Path_9040" data-name="Path 9040" d="M381.3,256.209a10.6,10.6,0,0,1,.57,4.446l-.849.079a31.027,31.027,0,0,0-1.729-5.7,1.181,1.181,0,0,1,1.242.122A2.445,2.445,0,0,1,381.3,256.209Z" transform="translate(-379.29 -254.909)" fill="#fff"/>
            </g>
            <g id="Group_11634" data-name="Group 11634">
              <path id="Path_9041" data-name="Path 9041" d="M371.511,260.683a12.973,12.973,0,0,0-1.163-5.471c-.406-.89-1.067-1.836-2.043-1.9a2.909,2.909,0,0,0-1.468.428,8.68,8.68,0,0,0-2.495,1.727,10.262,10.262,0,0,0-2.031,4.652,1.409,1.409,0,0,0-.009.959,1.118,1.118,0,0,0,1.085.482q.261.845.522,1.688a.279.279,0,0,0,.415.231l2.055-.528a1.9,1.9,0,0,0,.905-.415,2.308,2.308,0,0,0,.411-.736,5.244,5.244,0,0,1,.4-.741Z" transform="translate(-362.219 -253.31)" fill="#f4424f"/>
            </g>
            <g id="Group_11635" data-name="Group 11635" transform="translate(1.185 3.581)">
              <path id="Path_9042" data-name="Path 9042" d="M367.726,262.154a2.472,2.472,0,0,0-2.025.5,1.481,1.481,0,0,0,1.464,2.551,2.544,2.544,0,0,0,1.458-1.417,1.037,1.037,0,0,0-.9-1.635Z" transform="translate(-365.135 -262.117)" fill="#14345a"/>
            </g>
          </g>
          <g id="Group_11642" data-name="Group 11642" transform="translate(59.159 29.97)">
            <g id="Group_11639" data-name="Group 11639" transform="translate(0 3.916)">
              <g id="Group_11637" data-name="Group 11637">
                <circle id="Ellipse_257" data-name="Ellipse 257" cx="10.164" cy="10.164" r="10.164" fill="#14345a"/>
              </g>
              <g id="Group_11638" data-name="Group 11638" transform="translate(3.572 3.572)">
                <circle id="Ellipse_258" data-name="Ellipse 258" cx="6.592" cy="6.592" r="6.592" fill="#3ac1b0"/>
              </g>
            </g>
            <g id="Group_11640" data-name="Group 11640" transform="translate(1.544)">
              <path id="Path_9043" data-name="Path 9043" d="M381.845,344.11c1.214,1.08,3.121.786,4.6.122a3.606,3.606,0,0,0,2.089-1.869,4.107,4.107,0,0,0-.191-2.5,80.982,80.982,0,0,0-3.9-10.376c-.323-.709-.746-1.491-1.5-1.685a5.261,5.261,0,0,1-.758-.157c-.238-.1-.437-.378-.326-.612a15.181,15.181,0,0,0-3.734,1.7,2.2,2.2,0,0,0-1,1.044,2.364,2.364,0,0,0,.138,1.448l3.3,10.468A5.2,5.2,0,0,0,381.845,344.11Z" transform="translate(-377.061 -327.028)" fill="#14345a"/>
            </g>
            <g id="Group_11641" data-name="Group 11641" transform="translate(7.113 12.516)">
              <path id="Path_9044" data-name="Path 9044" d="M392.8,361.893a2.039,2.039,0,1,1,2.04-2.04A2.042,2.042,0,0,1,392.8,361.893Zm0-3.774a1.735,1.735,0,1,0,1.735,1.734A1.736,1.736,0,0,0,392.8,358.119Z" transform="translate(-390.759 -357.814)" fill="#fff"/>
            </g>
          </g>
          <g id="Group_11643" data-name="Group 11643" transform="translate(6.31 27.003)">
            <path id="Path_9045" data-name="Path 9045" d="M259.681,319.9a10.843,10.843,0,0,0-8.031,1.859,17.025,17.025,0,0,0-5.386,6.413,40.5,40.5,0,0,0-2.85,7.951,1.966,1.966,0,0,0-.025,1.389,1.837,1.837,0,0,0,.9.73,22.2,22.2,0,0,0,8.079,1.809,63.281,63.281,0,0,0,17.173-1.1,4.939,4.939,0,0,0,1.771-.613,3.784,3.784,0,0,0,1.039-1.111,8.624,8.624,0,0,0,1.01-6.582,13.956,13.956,0,0,0-3.221-5.957,15.124,15.124,0,0,0-5.363-4.068,10.029,10.029,0,0,0-6.635-.545" transform="translate(-243.27 -319.73)" fill="#14345a"/>
          </g>
          <g id="Group_11644" data-name="Group 11644" transform="translate(2.191 26.353)">
            <path id="Path_9046" data-name="Path 9046" d="M254.6,318.55a.419.419,0,0,1-.419.42H233.558a.42.42,0,0,1-.42-.42h0a.419.419,0,0,1,.42-.419h20.619a.419.419,0,0,1,.419.419Z" transform="translate(-233.138 -318.131)" fill="#14345a"/>
          </g>
          <g id="Group_11648" data-name="Group 11648" transform="translate(57.227 31.464)">
            <g id="Group_11645" data-name="Group 11645">
              <path id="Path_9047" data-name="Path 9047" d="M393.313,343.253a13.685,13.685,0,0,0-3.232-7.737,12.643,12.643,0,0,0-2.926-2.713,11.688,11.688,0,0,0-12.342-.624,13.791,13.791,0,0,0-6.3,11.073Z" transform="translate(-368.512 -330.702)" fill="#f4424f"/>
            </g>
            <g id="Group_11646" data-name="Group 11646" transform="translate(1.255 3.764)">
              <path id="Path_9048" data-name="Path 9048" d="M371.6,348.144a9.04,9.04,0,0,1,18.015.155Z" transform="translate(-371.6 -339.96)" fill="#d62d41"/>
            </g>
            <g id="Group_11647" data-name="Group 11647" transform="translate(2.275 1.878)">
              <path id="Path_9049" data-name="Path 9049" d="M392.424,342.069a.152.152,0,0,1-.134-.079,12.069,12.069,0,0,0-8.4-6.227,9.739,9.739,0,0,0-9.5,3.778.152.152,0,0,1-.25-.174,10.052,10.052,0,0,1,9.8-3.9,12.375,12.375,0,0,1,8.619,6.382.152.152,0,0,1-.134.226Z" transform="translate(-374.107 -335.322)" fill="#fff"/>
            </g>
          </g>
          <g id="Group_11651" data-name="Group 11651" transform="translate(24.627 19.247)">
            <g id="Group_11649" data-name="Group 11649">
              <path id="Path_9050" data-name="Path 9050" d="M303.341,306.426c.37-.381.129-1.018-.177-1.452a9.33,9.33,0,0,0-4.723-3.284,24.154,24.154,0,0,0-5.751-.99,4.444,4.444,0,0,0-2.689.354c-1.116.68-1.414,2.139-1.605,3.432-.135.905-.153,2.055.66,2.475a2.228,2.228,0,0,0,1.108.151l12.286-.422A1.271,1.271,0,0,0,303.341,306.426Z" transform="translate(-288.325 -300.652)" fill="#14345a"/>
            </g>
            <g id="Group_11650" data-name="Group 11650" transform="translate(1.458 0.948)">
              <path id="Path_9051" data-name="Path 9051" d="M301.652,307.209a.152.152,0,0,1-.127-.068,9.018,9.018,0,0,0-9.425-3.606.152.152,0,1,1-.075-.3,9.328,9.328,0,0,1,9.753,3.732.153.153,0,0,1-.042.212A.155.155,0,0,1,301.652,307.209Z" transform="translate(-291.911 -302.983)" fill="#fff"/>
            </g>
          </g>
          <g id="Group_11658" data-name="Group 11658" transform="translate(50.215 19.253)">
            <g id="Group_11656" data-name="Group 11656">
              <g id="Group_11652" data-name="Group 11652" transform="translate(1.126 1.9)">
                <path id="Path_9052" data-name="Path 9052" d="M357.149,305.592c-.3-.35-.86-.264-1.309-.148-.7.181-1.5.452-1.734,1.134a2.209,2.209,0,0,0-.039.941q.279,2.706.557,5.411a1.115,1.115,0,0,0,1.261.991l1.319-.181a1.018,1.018,0,0,0,1-1.455l-.826-6.015A1.265,1.265,0,0,0,357.149,305.592Z" transform="translate(-354.035 -305.342)" fill="#fff"/>
              </g>
              <g id="Group_11653" data-name="Group 11653" transform="translate(1.863 1.054)">
                <path id="Path_9053" data-name="Path 9053" d="M355.847,303.5l.175,1.293,1.293-.3-.419-1.241Z" transform="translate(-355.847 -303.26)" fill="#fff"/>
              </g>
              <g id="Group_11654" data-name="Group 11654" transform="translate(0.944)">
                <path id="Path_9054" data-name="Path 9054" d="M353.8,302.332a13.377,13.377,0,0,1,2.192-.3q-.062-.681-.124-1.363l-2.286.3A5.973,5.973,0,0,0,353.8,302.332Z" transform="translate(-353.586 -300.668)" fill="#f4424f"/>
              </g>
              <g id="Group_11655" data-name="Group 11655" transform="translate(0 0.609)">
                <path id="Path_9055" data-name="Path 9055" d="M351.284,303.016a.416.416,0,0,0,.063.387.244.244,0,0,0,.358.013.535.535,0,0,1,.245-.519,1.164,1.164,0,0,1,.576-.169,5.262,5.262,0,0,0,.605-.048.8.8,0,0,1-.141-.516c-.313.115-.654.135-.974.231A1.02,1.02,0,0,0,351.284,303.016Z" transform="translate(-351.264 -302.165)" fill="#f4424f"/>
              </g>
            </g>
            <g id="Group_11657" data-name="Group 11657" transform="translate(1.055 3.005)">
              <path id="Path_9056" data-name="Path 9056" d="M358.606,311.679a24.263,24.263,0,0,0-.459-3.62,5.218,5.218,0,0,1-4.287,3.171l.107,1.108A38.352,38.352,0,0,1,358.606,311.679Z" transform="translate(-353.86 -308.059)" fill="#14345a"/>
            </g>
          </g>
          <g id="Group_11663" data-name="Group 11663" transform="translate(0 0.215)">
            <g id="Group_11659" data-name="Group 11659">
              <path id="Path_9057" data-name="Path 9057" d="M230.806,260.12a7.044,7.044,0,0,0-2.579,2.533,7.476,7.476,0,0,0-.37,4.094q.483,4.718,1.3,9.4a5.108,5.108,0,0,0,1.556,3.4,5.182,5.182,0,0,0,3.141.671l15.2-.024a2.315,2.315,0,0,0,2.948-2.679l.381-19.7a4.12,4.12,0,0,0-.4-2.3,3.25,3.25,0,0,0-1.763-1.22c-2.526-.87-5.312-.352-7.873.412A42.961,42.961,0,0,0,230.806,260.12Z" transform="translate(-227.748 -253.838)" fill="#f4424f"/>
            </g>
            <g id="Group_11660" data-name="Group 11660" transform="translate(1.894 3.53)">
              <path id="Path_9058" data-name="Path 9058" d="M253.2,272.42a96.223,96.223,0,0,0-20.649,2.234q-.071-2.991-.142-5.982a54.349,54.349,0,0,1,20.884-6.151Q253.243,267.47,253.2,272.42Z" transform="translate(-232.406 -262.521)" fill="#f2d525"/>
            </g>
            <g id="Group_11661" data-name="Group 11661" transform="translate(9.006 15.619)">
              <circle id="Ellipse_259" data-name="Ellipse 259" cx="3.827" cy="3.827" r="3.827" fill="#f2d525"/>
            </g>
            <g id="Group_11662" data-name="Group 11662" transform="translate(1.43 1.195)">
              <path id="Path_9059" data-name="Path 9059" d="M247.081,256.984a49.858,49.858,0,0,0-10.772,3.518c-1.924.824-3.944,1.784-5.042,3.566a12.818,12.818,0,0,1,4.4-2.757c2.661-1.071,4.754-1.9,7.479-2.8,2.7-.887,5.976-1.573,8.753-.973C250.542,256.579,248.715,256.693,247.081,256.984Z" transform="translate(-231.266 -256.777)" fill="#fff"/>
            </g>
          </g>
          <g id="Group_11674" data-name="Group 11674" transform="translate(4.947 28.681)">
            <g id="Group_11664" data-name="Group 11664">
              <path id="Path_9060" data-name="Path 9060" d="M256.329,324.023a10.845,10.845,0,0,0-8.031,1.859,17.028,17.028,0,0,0-5.386,6.413,40.477,40.477,0,0,0-2.85,7.951,1.963,1.963,0,0,0-.025,1.389,1.836,1.836,0,0,0,.9.73,22.185,22.185,0,0,0,8.079,1.809,63.263,63.263,0,0,0,17.173-1.1,4.936,4.936,0,0,0,1.771-.613A3.774,3.774,0,0,0,269,341.351a8.624,8.624,0,0,0,1.01-6.582,13.96,13.96,0,0,0-3.221-5.957,15.125,15.125,0,0,0-5.363-4.068,10.027,10.027,0,0,0-6.635-.545" transform="translate(-239.917 -323.856)" fill="#f4424f"/>
            </g>
            <g id="Group_11665" data-name="Group 11665" transform="translate(0.799 4.056)">
              <path id="Path_9061" data-name="Path 9061" d="M266.374,333.833l-.469,0c.056.692-.744,1.1-1.405,1.312-6.951,2.219-14,4.108-21.05,6q-.784,2.824-1.568,5.649c8.87-.316,17.512-2.738,26.055-5.144.768-.216,1.652-.543,1.871-1.31a2.393,2.393,0,0,0-.525-1.827Z" transform="translate(-241.882 -333.833)" fill="#f2d525"/>
            </g>
            <g id="Group_11666" data-name="Group 11666" transform="translate(3.184 0.641)">
              <path id="Path_9062" data-name="Path 9062" d="M247.9,333.916a.157.157,0,0,1-.057-.011.153.153,0,0,1-.084-.2,13.274,13.274,0,0,1,18.339-6.841.152.152,0,1,1-.139.272,12.969,12.969,0,0,0-17.917,6.684A.153.153,0,0,1,247.9,333.916Z" transform="translate(-247.749 -325.433)" fill="#fff"/>
            </g>
            <g id="Group_11673" data-name="Group 11673" transform="translate(20.987 15.218)">
              <g id="Group_11668" data-name="Group 11668" transform="translate(0 2.379)">
                <g id="Group_11667" data-name="Group 11667">
                  <path id="Path_9063" data-name="Path 9063" d="M296.426,367.353a.42.42,0,0,1-.311.326,16.537,16.537,0,0,1-4.4.457c-.144,0-.214-.127-.159-.277h0a.409.409,0,0,1,.352-.266,16.124,16.124,0,0,0,4.283-.445.178.178,0,0,1,.233.205Z" transform="translate(-291.539 -367.142)" fill="#14345a"/>
                </g>
              </g>
              <g id="Group_11670" data-name="Group 11670" transform="translate(0.198 1.19)">
                <g id="Group_11669" data-name="Group 11669">
                  <path id="Path_9064" data-name="Path 9064" d="M296.913,364.427a.419.419,0,0,1-.31.326,16.538,16.538,0,0,1-4.4.457c-.143,0-.214-.127-.159-.277h0a.409.409,0,0,1,.352-.266,16.126,16.126,0,0,0,4.282-.445.178.178,0,0,1,.233.205Z" transform="translate(-292.026 -364.216)" fill="#14345a"/>
                </g>
              </g>
              <g id="Group_11672" data-name="Group 11672" transform="translate(0.396)">
                <g id="Group_11671" data-name="Group 11671">
                  <path id="Path_9065" data-name="Path 9065" d="M297.4,361.5a.418.418,0,0,1-.31.326,16.541,16.541,0,0,1-4.4.457c-.144,0-.214-.127-.159-.277h0a.41.41,0,0,1,.352-.267,16.108,16.108,0,0,0,4.283-.445.178.178,0,0,1,.233.205Z" transform="translate(-292.513 -361.289)" fill="#14345a"/>
                </g>
              </g>
            </g>
          </g>
          <g id="Group_11678" data-name="Group 11678" transform="translate(51.253 9.282)">
            <g id="Group_11675" data-name="Group 11675">
              <path id="Path_9066" data-name="Path 9066" d="M360.359,305.292a19.488,19.488,0,0,1,5.512-6.445c1.6-1.212,3.45-2.3,4.274-4.123,1-2.206.176-4.765-.648-7.041l-2.668-7.36a12.631,12.631,0,0,0-1.429-2.8c-.5-.736-1.509-1.605-2.527-1.33-.012,1.551-1.747,2.919-2.612,4.207-1.456,2.167-1.261,5-1.087,7.6a45.741,45.741,0,0,1-.278,10.758,19.961,19.961,0,0,1-4.3,9.747c-.433.5-.933,1.114-.732,1.744.224.7,1.173.866,1.886.677a5.217,5.217,0,0,0,2.872-2.3A36.67,36.67,0,0,0,360.359,305.292Z" transform="translate(-353.818 -276.14)" fill="#f4424f"/>
            </g>
            <g id="Group_11676" data-name="Group 11676" transform="translate(6.711 3.941)">
              <path id="Path_9067" data-name="Path 9067" d="M371.327,292.546c.543.069.953-.487,1.138-1a32.644,32.644,0,0,1,.883-3.374,7.534,7.534,0,0,0,.5-1.03,1.078,1.078,0,0,0-.18-1.077.973.973,0,0,0-1.029-.149,2.269,2.269,0,0,0-.848.684,5.688,5.688,0,0,0-1.339,4.89C370.569,291.961,370.843,292.485,371.327,292.546Z" transform="translate(-370.326 -285.833)" fill="#fff"/>
            </g>
            <g id="Group_11677" data-name="Group 11677" transform="translate(1.109 0.117)">
              <path id="Path_9068" data-name="Path 9068" d="M356.7,309.015a.15.15,0,0,1-.1-.036.152.152,0,0,1-.018-.215c4.257-5.045,4.839-11.411,4.577-15.864-.064-1.1-.065-2.215-.067-3.3,0-.892,0-1.814-.038-2.716l-.017-.409c-.082-1.865-.166-3.794.9-5.38a16.059,16.059,0,0,1,1.017-1.314,7.692,7.692,0,0,0,1.845-3.245.153.153,0,0,1,.3.076,7.94,7.94,0,0,1-1.907,3.363,15.826,15.826,0,0,0-1,1.289c-1.014,1.5-.932,3.38-.853,5.2l.017.409c.037.908.038,1.834.039,2.728,0,1.077,0,2.192.066,3.28.264,4.508-.327,10.956-4.649,16.078A.152.152,0,0,1,356.7,309.015Z" transform="translate(-356.546 -276.427)" fill="#fff"/>
            </g>
          </g>
        </g>
      </g>
    </g>
  </g>
</svg>
