<svg xmlns="http://www.w3.org/2000/svg" xmlns:xlink="http://www.w3.org/1999/xlink" width="428" height="213.657" viewBox="0 0 428 213.657">
  <defs>
    <linearGradient id="linear-gradient" y1="0.5" x2="1" y2="0.5" gradientUnits="objectBoundingBox">
      <stop offset="0" stop-color="#03e8e8"/>
      <stop offset="1" stop-color="#32eea3"/>
    </linearGradient>
    <linearGradient id="linear-gradient-2" x1="0.5" y1="0" x2="0.5" y2="1" xlink:href="#linear-gradient"/>
  </defs>
  <g id="Group_1057" data-name="Group 1057" transform="translate(-3118.977 -1648.683)">
    <g id="Group_1055" data-name="Group 1055" transform="translate(3118.977 1648.683)">
      <path id="Path_9961" data-name="Path 9961" d="M1316.942,726.5h-34.589v-73.88h34.589Zm-30.03,15.174h-45.468V683.994h45.468Zm-253-62.144v78.831h61.543V729.049h38.189V663.356h-40.011v16.175Zm176.872-33.687h-34.658v75.588h34.658Z" transform="translate(-912.451 -623.65)" fill="#18ebc8"/>
      <g id="Group_1039" data-name="Group 1039" transform="translate(94.378 23.902)">
        <path id="Path_9962" data-name="Path 9962" d="M956.257,690.554v49.3h18.752V685.342l24.379-6.274v30.114h25.824V652.705h37.853v42.681h16.268V669.138h40.39v33.433h25.091V659.639l43.689,7.98v58.434h13.049v-35.5h36.686v17.267h18.44v90.943H925.119V690.554Z" transform="translate(-925.119 -652.705)" fill="#0a5081"/>
        <g id="Group_1038" data-name="Group 1038" transform="translate(9.239 4.997)" opacity="0.82" style="mix-blend-mode: soft-light;isolation: isolate">
          <rect id="Rectangle_3682" data-name="Rectangle 3682" width="4.296" height="2.885" transform="translate(218.569 15.471) rotate(-180)" fill="#fff"/>
          <rect id="Rectangle_3683" data-name="Rectangle 3683" width="4.296" height="2.885" transform="translate(218.569 21.024) rotate(-180)" fill="#fff"/>
          <rect id="Rectangle_3684" data-name="Rectangle 3684" width="4.296" height="2.885" transform="translate(218.569 32.131) rotate(-180)" fill="#fff"/>
          <rect id="Rectangle_3685" data-name="Rectangle 3685" width="4.296" height="2.885" transform="translate(226.009 9.917) rotate(-180)" fill="#fff"/>
          <rect id="Rectangle_3686" data-name="Rectangle 3686" width="4.296" height="2.885" transform="translate(226.009 15.471) rotate(-180)" fill="#fff"/>
          <rect id="Rectangle_3687" data-name="Rectangle 3687" width="4.296" height="2.885" transform="translate(226.009 26.578) rotate(-180)" fill="#fff"/>
          <rect id="Rectangle_3688" data-name="Rectangle 3688" width="4.296" height="2.885" transform="translate(48.929 34.295) rotate(-180)" fill="#fff"/>
          <rect id="Rectangle_3689" data-name="Rectangle 3689" width="4.296" height="2.885" transform="translate(48.929 45.169) rotate(-180)" fill="#fff"/>
          <rect id="Rectangle_3690" data-name="Rectangle 3690" width="4.296" height="2.885" transform="translate(48.929 50.605) rotate(-180)" fill="#fff"/>
          <rect id="Rectangle_3691" data-name="Rectangle 3691" width="4.296" height="2.885" transform="translate(48.929 56.042) rotate(-180)" fill="#fff"/>
          <rect id="Rectangle_3692" data-name="Rectangle 3692" width="4.296" height="2.885" transform="translate(48.929 66.916) rotate(-180)" fill="#fff"/>
          <rect id="Rectangle_3693" data-name="Rectangle 3693" width="4.296" height="2.885" transform="translate(57.424 34.295) rotate(-180)" fill="#fff"/>
          <rect id="Rectangle_3694" data-name="Rectangle 3694" width="4.296" height="2.885" transform="translate(57.424 39.732) rotate(-180)" fill="#fff"/>
          <rect id="Rectangle_3695" data-name="Rectangle 3695" width="4.296" height="2.885" transform="translate(57.424 56.042) rotate(-180)" fill="#fff"/>
          <rect id="Rectangle_3696" data-name="Rectangle 3696" width="4.296" height="2.885" transform="translate(226.009 32.131) rotate(-180)" fill="#fff"/>
          <rect id="Rectangle_3697" data-name="Rectangle 3697" width="4.296" height="2.885" transform="translate(226.009 37.684) rotate(-180)" fill="#fff"/>
          <rect id="Rectangle_3698" data-name="Rectangle 3698" width="4.296" height="2.885" transform="translate(233.449 15.471) rotate(-180)" fill="#fff"/>
          <rect id="Rectangle_3699" data-name="Rectangle 3699" width="4.296" height="2.885" transform="translate(233.449 26.578) rotate(-180)" fill="#fff"/>
          <rect id="Rectangle_3700" data-name="Rectangle 3700" width="4.296" height="2.885" transform="translate(233.449 32.131) rotate(-180)" fill="#fff"/>
          <rect id="Rectangle_3701" data-name="Rectangle 3701" width="4.482" height="3.874" transform="translate(107.563 3.874) rotate(-180)" fill="#fff"/>
          <rect id="Rectangle_3702" data-name="Rectangle 3702" width="4.482" height="3.875" transform="translate(107.563 11.334) rotate(-180)" fill="#fff"/>
          <rect id="Rectangle_3703" data-name="Rectangle 3703" width="4.482" height="3.874" transform="translate(107.563 18.793) rotate(-180)" fill="#fff"/>
          <rect id="Rectangle_3704" data-name="Rectangle 3704" width="4.482" height="3.875" transform="translate(107.563 26.252) rotate(-180)" fill="#fff"/>
          <rect id="Rectangle_3705" data-name="Rectangle 3705" width="4.482" height="3.874" transform="translate(107.563 33.711) rotate(-180)" fill="#fff"/>
          <rect id="Rectangle_3706" data-name="Rectangle 3706" width="4.482" height="3.874" transform="translate(115.326 3.874) rotate(-180)" fill="#fff"/>
          <rect id="Rectangle_3707" data-name="Rectangle 3707" width="4.482" height="3.875" transform="translate(115.326 11.334) rotate(-180)" fill="#fff"/>
          <rect id="Rectangle_3708" data-name="Rectangle 3708" width="4.482" height="3.874" transform="translate(115.326 33.711) rotate(-180)" fill="#fff"/>
          <rect id="Rectangle_3709" data-name="Rectangle 3709" width="4.482" height="3.874" transform="translate(123.088 3.874) rotate(-180)" fill="#fff"/>
          <rect id="Rectangle_3710" data-name="Rectangle 3710" width="4.482" height="3.874" transform="translate(123.088 18.793) rotate(-180)" fill="#fff"/>
          <rect id="Rectangle_3711" data-name="Rectangle 3711" width="4.482" height="3.875" transform="translate(123.088 26.252) rotate(-180)" fill="#fff"/>
          <rect id="Rectangle_3712" data-name="Rectangle 3712" width="4.482" height="3.874" transform="translate(123.088 33.711) rotate(-180)" fill="#fff"/>
          <rect id="Rectangle_3713" data-name="Rectangle 3713" width="2.587" height="39.096" transform="translate(181.711 54.519) rotate(-180)" fill="#fff"/>
          <rect id="Rectangle_3714" data-name="Rectangle 3714" width="2.587" height="39.096" transform="translate(175.612 54.519) rotate(-180)" fill="#fff"/>
          <rect id="Rectangle_3715" data-name="Rectangle 3715" width="1.737" height="17.157" transform="translate(290.778 36.815) rotate(90)" fill="#fff"/>
          <rect id="Rectangle_3716" data-name="Rectangle 3716" width="1.737" height="17.157" transform="translate(290.778 40.911) rotate(90)" fill="#fff"/>
          <rect id="Rectangle_3717" data-name="Rectangle 3717" width="1.737" height="17.157" transform="translate(290.778 51.824) rotate(90)" fill="#fff"/>
          <rect id="Rectangle_3718" data-name="Rectangle 3718" width="1.737" height="17.157" transform="translate(290.778 47.424) rotate(90)" fill="#fff"/>
          <rect id="Rectangle_3719" data-name="Rectangle 3719" width="1.737" height="17.157" transform="translate(290.778 55.92) rotate(90)" fill="#fff"/>
          <rect id="Rectangle_3720" data-name="Rectangle 3720" width="2.587" height="39.096" transform="translate(169.513 54.519) rotate(-180)" fill="#fff"/>
          <rect id="Rectangle_3721" data-name="Rectangle 3721" width="2.587" height="39.096" transform="translate(163.414 54.519) rotate(-180)" fill="#fff"/>
          <rect id="Rectangle_3722" data-name="Rectangle 3722" width="2.587" height="39.096" transform="translate(157.315 54.519) rotate(-180)" fill="#fff"/>
          <rect id="Rectangle_3723" data-name="Rectangle 3723" width="2.587" height="39.096" transform="translate(151.216 54.519) rotate(-180)" fill="#fff"/>
          <rect id="Rectangle_3724" data-name="Rectangle 3724" width="2.587" height="39.096" transform="translate(15.219 75.59) rotate(-180)" fill="#fff"/>
          <rect id="Rectangle_3725" data-name="Rectangle 3725" width="2.587" height="39.096" transform="translate(8.903 75.59) rotate(-180)" fill="#fff"/>
          <rect id="Rectangle_3726" data-name="Rectangle 3726" width="2.587" height="39.096" transform="translate(2.587 75.59) rotate(-180)" fill="#fff"/>
        </g>
      </g>
      <path id="Path_9963" data-name="Path 9963" d="M840.179,1050.063q8.828.668,17.659,1.245a39.07,39.07,0,0,1,6.946,1.117c2.545.627,5.514-.461,8.094-.6,16.484-.894,32.878,2.99,49.35,3.066,2.41.011,4.923-.1,7.059-1.864a6.8,6.8,0,0,0,2.381-5.505,7.684,7.684,0,0,0-.947-3.113,11,11,0,0,0-5.5-4.978c-6.157-2.7-13.062-.74-18.243,5.165a22.906,22.906,0,0,0,.782-5.3c-.013-1.826-.529-3.758-1.556-4.6a2.972,2.972,0,0,0-2.138-.538c-4.716.2-9.374,2.94-13.027,7.655l.5-4.447a3.5,3.5,0,0,0-.035-1.413c-.344-1.066-1.375-.614-1.99.086a15.976,15.976,0,0,0-2.847,4.933,15.678,15.678,0,0,0,.418-4.039c-.094-1.366-.632-2.754-1.476-3.092a1.7,1.7,0,0,0-1.251.087,7.415,7.415,0,0,0-3.693,3.668,40.016,40.016,0,0,0,2.741-19.4,13.275,13.275,0,0,0-1.636-5.682c-1.073-1.591-2.217-1.194-3.556-.719-2.928,1.04-5.539,3.883-7.521,7.379-2.667,4.707-4.363,10.555-6.007,16.313,1.037-2.775-1.036-6.617-3.037-5.981s-3.115,4.526-2.512,7.6c-1.669-6.327-3.978-12.506-7.544-16.412s-8.611-5.029-12.24-1.268c0,0-3.264,5.544-4.011,6.291s-8.961-2.738-12.7,2.738-2.738,6.472-4.978,10.206-17.674,12.2-17.674,12.2,32.986,1.143,64.785,1.567,32.047-.323,32.047-.323" transform="translate(-736.767 -898.187)" fill="#18ebc8"/>
      <path id="Path_9964" data-name="Path 9964" d="M2021.538,1041.938c-.431-1.088-5.012-15.6-18.219-9.412-5.006,2.345-10.145,9.218-10.205,20.755.622-5.791-2.92-11.792-7.648-12.958a6.073,6.073,0,0,0-3.73.17c-4.167,1.671-5.337,8-5.839,13.277-.387-2.952-3.287-4.992-5.6-3.937s-3.376,4.906-2.054,7.431c-1.518-2.922-4.556-4.085-7.388-4.494a23.807,23.807,0,0,0-16.255,3.677c-2.182,1.4-4.483,4.04-3.726,6.885.709,2.665,3.516,3.336,5.824,3.526a263.256,263.256,0,0,0,55.9-1.357" transform="translate(-1593.538 -912.928)" fill="#18ebc8"/>
      <rect id="Rectangle_3727" data-name="Rectangle 3727" width="309.238" height="38.837" transform="translate(411.881 191.948) rotate(-180)" fill="url(#linear-gradient)"/>
      <path id="Path_9965" data-name="Path 9965" d="M1905.456,1135.583c-.919-6.269-8.97-7.376-16.281-7.07-4.7.2-8.617,3.324-11.052,6.829-3.7,5.322-4.213,7.068-5.042,12.966-3.492-3.785-10.8-3.966-14.91-.688a9.938,9.938,0,0,0-1.887,13.35c-.258-.375-9.542-3.921-13.185.593-2.537,3.143,2.844,7.791,2.844,7.791s-3.844-2.842-5.822-.755c-.424.448-.177,1.147.058,1.69a10.767,10.767,0,0,1,.714,1.623c-.169-.692-3.565-1.049-4.3-1.109a20.157,20.157,0,0,0-5.308.336c-5.746,1.068-12.645,3.961-15.457,8.678a3.749,3.749,0,0,0-.664,2.7c.36,1.528,2.177,2.407,3.841,2.988,6.74,2.354,14.051,3.149,21.287,3.7,27.32,2.07,54.823.926,82.18-.745" transform="translate(-1499.184 -986.136)" fill="#0a5081"/>
      <path id="Path_9966" data-name="Path 9966" d="M685.281,1176.43c4.414-.429,8.846-1.53,13.208-1.706a60.077,60.077,0,0,0,14.369-1.81c3.887-1.1,8.831-.607,9.545-4.154.738-3.664-4.129-10.03-7.577-12.173a34.413,34.413,0,0,0-17.406-5.241,30.5,30.5,0,0,0-18.307,4.934c2.62-2.849,3.93-6.129,3.523-9.5-.5-4.16-5.008-7.508-9.748-7.64a12.509,12.509,0,0,0-11.217,6.49c.758-2.689,1.519-5.507.777-8.2s-3.516-5.168-6.636-4.849a7.514,7.514,0,0,0-5.042,3.218,25.887,25.887,0,0,0-4.29-21.761c-6.19-8.471-21.372-11.346-31.326-2.167,0,0-7.935,7.972-6.939,12.7s-9.957-6.472-13.442,4.73a41.564,41.564,0,0,1-10.455,17.425s-12.7-8.712-16.429-3.485-28.129,13.94-20.412,18.172,36.343,13.442,37.339,13.691,31.614,5.974,31.614,5.974l21.159,1.991S674.541,1177.473,685.281,1176.43Z" transform="translate(-545.976 -969.413)" fill="#0a5081"/>
      <rect id="Rectangle_3728" data-name="Rectangle 3728" width="285.222" height="190.148" transform="translate(400.43 190.148) rotate(-180)" fill="none"/>
      <g id="Group_1040" data-name="Group 1040" transform="translate(161.698 157.265)">
        <ellipse id="Ellipse_54" data-name="Ellipse 54" cx="96.375" cy="5.485" rx="96.375" ry="5.485" fill="#174f02" style="mix-blend-mode: soft-light;isolation: isolate"/>
      </g>
    </g>
    <g id="Group_1056" data-name="Group 1056" transform="translate(3311.847 1736.135)">
      <path id="Path_9970" data-name="Path 9970" d="M1593.43,1120.158l.05,3.681-2.869-.132-.207-3.591Z" transform="translate(-1547.436 -1042.563)" fill="#ffcfae"/>
      <path id="Path_9971" data-name="Path 9971" d="M1612.02,1005.184s.22,3.877-.279,5.128-1.973,3.023-6.258,2.464c-3.1-.4-11.208-.025-15.445.216a2.953,2.953,0,0,0-2.784,2.817c-.175,3.906-.249,14.211-.479,18.053l-4.8.01c-1.1-18.257-1.1-18.257-1.012-20.086.177-3.558,2.588-7.449,14.16-8.426,4.257-.4,3.7-1.515,3.7-1.515Z" transform="translate(-1540.32 -955.236)" fill="#021e26"/>
      <path id="Path_9972" data-name="Path 9972" d="M1637.228,1029.183a40.383,40.383,0,0,0-16.235,6.1,3,3,0,0,1-3.951-.665c-1.638-2.1-1.7-3.574-1.6-4.522a9.782,9.782,0,0,1,6.289-6.34,21.537,21.537,0,0,1,6.1-.025,46.152,46.152,0,0,0,12.568-2.051c2.32-.931,10.8-1.277,14.721-1.389a3.078,3.078,0,0,1,2.866,1.75l.22.461-1.885,4.455S1646.834,1027.81,1637.228,1029.183Z" transform="translate(-1566.221 -967.586)" fill="#594a42"/>
      <path id="Path_9973" data-name="Path 9973" d="M1615.431,1034.488v-.01c0-.053.009-.1.014-.155,0-.01,0-.022,0-.032,0-.038.013-.083.023-.131,0-.012.005-.024.008-.036.011-.047.024-.1.04-.153l0-.01c.019-.062.042-.13.067-.2l.008-.022a10.1,10.1,0,0,1,6.14-5.786h0a10.145,10.145,0,0,1,2.547-.236q.2,0,.405.007c.271.007.545.019.817.033.817.044,1.624.114,2.334.171h0c.062.005.131.009.2.011l.078,0,.163,0h.1l.175,0,.112,0,.2-.007.119-.005.218-.011.122-.007.249-.016.114-.008.292-.023.093-.007.353-.032.054,0c1.161-.11,2.536-.285,3.918-.508h0a32.242,32.242,0,0,0,6.008-1.43,12.373,12.373,0,0,1-6.341,3.085h0s-8.582,1.625-12.331,1.823-4.971,2.7-4.807,3.9a9.812,9.812,0,0,0,.86,1.4,3,3,0,0,0,3.926.8,40.383,40.383,0,0,1,16.431-5.551c8.549-.929,16.922-1.532,18.718-1.657l-.517,1.546s-9.511.791-19.118,2.163a40.386,40.386,0,0,0-16.235,6.1,3,3,0,0,1-3.951-.665,7.852,7.852,0,0,1-1.435-2.645h0A4.739,4.739,0,0,1,1615.431,1034.488Z" transform="translate(-1566.223 -971.781)" fill="#594a42" opacity="0.3" style="mix-blend-mode: multiply;isolation: isolate"/>
      <circle id="Ellipse_55" data-name="Ellipse 55" cx="13.12" cy="13.12" r="13.12" transform="translate(0 76.261)" fill="#2e2b36"/>
      <circle id="Ellipse_56" data-name="Ellipse 56" cx="9.455" cy="9.455" r="9.455" transform="translate(3.665 79.926)" fill="#17141d"/>
      <circle id="Ellipse_57" data-name="Ellipse 57" cx="7.272" cy="7.272" r="7.272" transform="translate(4.379 83.963) rotate(-13.207)" fill="#a6a8ab"/>
      <circle id="Ellipse_58" data-name="Ellipse 58" cx="2.399" cy="2.399" r="2.399" transform="translate(10.721 86.982)" fill="#2e2b36"/>
      <path id="Path_9974" data-name="Path 9974" d="M1561.341,929.555a10.018,10.018,0,0,1,1.459-2.593.69.69,0,0,1,.594-.264l3.531.249v.009l12.228.893,5.951-10.156a3.112,3.112,0,0,1,.245-.354,2.853,2.853,0,0,1,4.118-.33,2.906,2.906,0,0,1,.264,3.986l-8.009,9.88-.146.18a1.726,1.726,0,0,1-1.619.617l-13.213-2.155v0s-1.562.292-1.72-.121-1.116-.334-1.158.267.926.735.884,1.336c-.115,1.627-1.942,1.31-2.314.882S1561.052,930.231,1561.341,929.555Z" transform="translate(-1525.568 -889.469)" fill="#ffb380"/>
      <path id="Path_9975" data-name="Path 9975" d="M1741.364,916.1H1720.21a3.046,3.046,0,0,0-3.046,3.046v24.2h27.245v-24.2A3.046,3.046,0,0,0,1741.364,916.1Z" transform="translate(-1642.642 -889.329)" fill="#999100"/>
      <path id="Path_9976" data-name="Path 9976" d="M1720.163,916.511h.088v14.55a9.108,9.108,0,0,0,9.108,9.108h15.049v3.586h-27.245V919.51A3,3,0,0,1,1720.163,916.511Z" transform="translate(-1642.642 -889.641)" fill="#686000"/>
      <g id="Group_1045" data-name="Group 1045" transform="translate(33.16 31.216)">
        <path id="Path_9977" data-name="Path 9977" d="M1551.377,940.771a.316.316,0,0,0,.255-.275l.7-6.178a.316.316,0,1,0-.627-.071l-.7,6.178a.316.316,0,0,0,.372.346Z" transform="translate(-1551.003 -933.967)" fill="#bbbdbf"/>
      </g>
      <path id="Path_9978" data-name="Path 9978" d="M1549.555,911.711a.4.4,0,0,1,.664.152c.462,1.445,1.55,5.022,1.351,6.017a.632.632,0,0,1-.818.482c-1.051-.349-3.037-1.184-3.3-2.561C1547.189,914.4,1548.746,912.556,1549.555,911.711Z" transform="translate(-1515.155 -885.943)" fill="#a6a8ab"/>
      <path id="Path_9979" data-name="Path 9979" d="M1548.224,918.08a2.754,2.754,0,0,0-.312,1.639c.26,1.377,2.246,2.212,3.3,2.561a.624.624,0,0,0,.275.027,1.919,1.919,0,0,1-.019.454.632.632,0,0,1-.818.482c-1.051-.349-3.037-1.184-3.3-2.561A3.8,3.8,0,0,1,1548.224,918.08Z" transform="translate(-1515.076 -890.819)" fill="#616068"/>
      <path id="Path_9980" data-name="Path 9980" d="M1632.332,921.073s4.283-6.243,5.235-7.646,3.564-2.784,5.328-1.568,2.083,3.419.7,5.6-5.279,7.6-5.279,7.6Z" transform="translate(-1578.927 -885.795)" fill="#0ac6a7"/>
      <path id="Path_9981" data-name="Path 9981" d="M1576.864,1128.058a3.167,3.167,0,0,1-3.806-.088s-.24,1.536-2.652,1.476-2.925.841-2.668,2.189l.148.755,9.467-.468Z" transform="translate(-1530.366 -1048.462)" fill="#726658"/>
      <path id="Path_9982" data-name="Path 9982" d="M1566.244,1143.849l.08,1.039-9.538.484-.009-1.055Z" transform="translate(-1522.179 -1060.389)" fill="#c1b49a"/>
      <path id="Path_9983" data-name="Path 9983" d="M1585.486,1138.061c-.274-2.166,2.056-2.07,2.056-2.07h0l.247,1.956-2.3.114Z" transform="translate(-1543.725 -1054.486)" fill="#fff"/>
      <path id="Path_9984" data-name="Path 9984" d="M1656.535,1136.183c2.631-.6,4.981-5.473,4.981-5.473s11.046-2.86,20.884-5.512l-.257,11.616s-14.032,4.561-14.243,4.631-4.841-.281-6.876-1.649a4.019,4.019,0,0,0-3.929-.386c-1.4.632-4.385.386-4.385.386C1654.01,1139.832,1656.535,1136.183,1656.535,1136.183Z" transform="translate(-1594.233 -1046.381)" fill="#382c27"/>
      <circle id="Ellipse_59" data-name="Ellipse 59" cx="13.12" cy="13.12" r="13.12" transform="translate(77.221 76.261)" fill="#2e2b36"/>
      <circle id="Ellipse_60" data-name="Ellipse 60" cx="9.455" cy="9.455" r="9.455" transform="translate(80.886 79.926)" fill="#17141d"/>
      <circle id="Ellipse_61" data-name="Ellipse 61" cx="7.272" cy="7.272" r="7.272" transform="translate(82.002 83.363) rotate(-9.18)" fill="#a6a8ab"/>
      <circle id="Ellipse_62" data-name="Ellipse 62" cx="4.525" cy="4.525" r="4.525" transform="translate(85.816 84.857)" fill="#808184"/>
      <path id="Path_9985" data-name="Path 9985" d="M1691.5,1139.234s3.985,3.737,1.3,7.947c-1.982,3.157-6.893,2.315-7.788.684,0,0-1.394-.026-1.737.658s-1.184-1-.868-1.526,1.368-3.129,1.368-3.129h.684a3.485,3.485,0,0,1,2.762-2.844l-.1-.644Z" transform="translate(-1616.489 -1056.922)" fill="#6a6e72"/>
      <path id="Path_9986" data-name="Path 9986" d="M1668.777,1150.71s.316,2.42,2.473,2.736,9.156.5,9.156.5a38.531,38.531,0,0,1,4.815.263c.684.237,4.183.763,6,.158s12.322-4.043,12.918-4.745,1.543-2.035,1.438-2.982,1.123-1.3,1.123-1.3l-.351-1.193s-1.081.168-1.318-.259-1.313-2.828-5.242-1.811-12.313,3.719-13.751,4.806a5.081,5.081,0,0,0-2.069,2.806c-.386,1.017-2.631,3.3-4.736,3.4a67.392,67.392,0,0,1-7.455-.386c-.614-.088-2.017-.965-2.052-2.052C1669.724,1150.657,1669.443,1150.166,1668.777,1150.71Z" transform="translate(-1606.299 -1058.873)" fill="#594a42"/>
      <path id="Path_9987" data-name="Path 9987" d="M1696.4,1153.637a2.491,2.491,0,1,0,2.49-2.49A2.491,2.491,0,0,0,1696.4,1153.637Z" transform="translate(-1627.046 -1065.87)" fill="#d0d2d3"/>
      <path id="Path_9988" data-name="Path 9988" d="M1528.967,947.971l1.7-1.272a.233.233,0,0,1,.335.059l.935,1.437a2.481,2.481,0,0,1,.4,1.354s3.684,3.368,4.157,3.841-1.473,4.367-1.842,5.841-.526,2.052-2.368,1.21-3.368-1.789-3.631-1.92a1.02,1.02,0,0,1-.421-.895c-.123-.693-2.473-.763-4-1.289l-2.157-6.472Z" transform="translate(-1496.115 -912.28)" fill="#323f48"/>
      <path id="Path_9989" data-name="Path 9989" d="M1479.5,1013.46a60.523,60.523,0,0,1,11.432-17.378c1.411-1.606,3.258-3.46,4.11-4.3a.678.678,0,0,1,.932-.021,4.525,4.525,0,0,0,.641.509c.351.2,3.724,1.889,4.684,2.286a.729.729,0,0,1,.368.95c-.263.658-4.332,10.577-4.894,12.19a15.7,15.7,0,0,0,.421,11.4c2.28,5.017,2.184,6.481,5.735,7.928,2.318.944,5.375.381,7.744-.047,2.668-.481,6.075-1.052,8-3.126a7.2,7.2,0,0,0,2.24-4.591,9.618,9.618,0,0,0-2.089-5.6,40.384,40.384,0,0,1,16.26-6.034c9.612-1.333,19.014-2.245,19.014-2.245s12.19,10.6,13.769,12.7c.736,1,.789,1.47-.649,2.417s-35.852,9.857-35.852,9.857-2.35,4.876-4.982,5.473c0,0-2.526,3.648-3.823,3.613s-8.139-1.859-9.3-1.894-8.875.105-10.84.246-5.49-1.614-7.594-3.719-8.209-11.26-9.419-14.576a9.83,9.83,0,0,0-4.405-4.786,1.6,1.6,0,0,0-.636-.2C1479.935,1014.479,1479.178,1014.294,1479.5,1013.46Z" transform="translate(-1464.082 -946.026)" fill="url(#linear-gradient-2)"/>
      <path id="Path_9990" data-name="Path 9990" d="M1523.989,957.444h0l1.621,7.351h0a11.252,11.252,0,0,1-1.378-.352l-2.157-6.472Z" transform="translate(-1496.115 -920.384)" fill="#d6d6d6"/>
      <g id="Group_1046" data-name="Group 1046" transform="translate(34.729 31.102)">
        <path id="Path_9991" data-name="Path 9991" d="M1557.621,940.082a.316.316,0,0,0,.3-.223l1.838-5.94a.316.316,0,0,0-.6-.187l-1.839,5.94a.316.316,0,0,0,.208.4A.32.32,0,0,0,1557.621,940.082Z" transform="translate(-1557.305 -933.51)" fill="#bbbdbf"/>
      </g>
      <path id="Path_9992" data-name="Path 9992" d="M1555.858,958.454l.7.468.508,1.544a7.643,7.643,0,0,1-2.14,1.062l-.368-2.184.7-1.076Z" transform="translate(-1520.512 -921.003)" fill="#1a8e8e"/>
      <path id="Path_9993" data-name="Path 9993" d="M1500.62,1043.836c.1-.316-.105-.6-.7-.281a14.689,14.689,0,0,0-3.087,3.49c-.947,1.438-2.754,4.42-2.614,4.753s2-.176,2.157-.526S1500.514,1044.151,1500.62,1043.836Z" transform="translate(-1475.187 -984.956)" fill="#f9f7e9" opacity="0.51"/>
      <path id="Path_9994" data-name="Path 9994" d="M1442.742,1085.683l.007,0,1.963,1.562a8.1,8.1,0,0,1,1.921,2.913c.894,2.45,4.461,8.088,7.112,11.715h0a8.82,8.82,0,0,1-5.865-2.718c-2.194-2.6-7.556-6.991-15.066-4.951-2.779.742-4.422.525-5.019-.524A16.058,16.058,0,0,1,1442.742,1085.683Z" transform="translate(-1425.304 -1016.689)" fill="#3c3c3c"/>
      <path id="Path_9995" data-name="Path 9995" d="M1793.932,1059.769l3.341.391a6.314,6.314,0,0,1,3.527,1.612l3.3,3.016a1.183,1.183,0,0,1,.363,1.105h0a1.185,1.185,0,0,1-1.007.943l-1.54.2Z" transform="translate(-1700.3 -997.238)" fill="#bd1e2d"/>
      <path id="Path_9996" data-name="Path 9996" d="M1754.781,1148.516s.105,2.684-.921,3.341-8,3.315-8.735,3.789a4.241,4.241,0,0,0-1.447,1.316c-.211.395-2.384,1.368-5.1-.6s-3.163-2.973-2.557-3.473a22.057,22.057,0,0,1,4.683-2.72,73.988,73.988,0,0,1,10.788-2.963C1752.729,1147.016,1754.908,1146.771,1754.781,1148.516Z" transform="translate(-1656.627 -1062.809)" fill="#726658"/>
      <path id="Path_9997" data-name="Path 9997" d="M1736.022,1155.653c.065-.054.155-.123.261-.2a13.155,13.155,0,0,0,2.3,1.99c2.715,1.973,4.888,1,5.1.6a4.247,4.247,0,0,1,1.447-1.316c.736-.473,7.709-3.131,8.735-3.788a3.068,3.068,0,0,0,.876-2.184,1.541,1.541,0,0,1,.044.526s.105,2.684-.921,3.341-8,3.315-8.735,3.789a4.24,4.24,0,0,0-1.447,1.316c-.211.395-2.384,1.368-5.1-.605S1735.417,1156.152,1736.022,1155.653Z" transform="translate(-1656.627 -1065.578)" fill="#726658" opacity="0.5" style="mix-blend-mode: multiply;isolation: isolate"/>
      <path id="Path_9998" data-name="Path 9998" d="M1801.308,1107.741s-.877.842-.842,1.4a4.413,4.413,0,0,0,.842,1.579l1.156.6,3.826,6.806a2.927,2.927,0,0,1-2.912,0s-.646.316-1.743-1.614a20.234,20.234,0,0,0-1.975-2.947l-3.7-1.721-4.856-1.051h0C1796.542,1109.3,1800.821,1108.062,1801.308,1107.741Z" transform="translate(-1698.173 -1033.269)" fill="#3c3c3c"/>
      <path id="Path_9999" data-name="Path 9999" d="M1796.486,1082.9c-.092-.022-6.3-3.262-7.214-3.631s.584-1.117,1.452-.94a33.819,33.819,0,0,1,6.525,3.635C1798.065,1082.74,1797.723,1083.187,1796.486,1082.9Z" transform="translate(-1696.586 -1011.156)" fill="#d6d6d6"/>
      <path id="Path_10000" data-name="Path 10000" d="M1562.6,911.965a.4.4,0,0,1,.624.272c.185,1.506.591,5.222.211,6.163a.632.632,0,0,1-.893.322c-.968-.538-2.765-1.727-2.765-3.128C1559.781,914.164,1561.652,912.645,1562.6,911.965Z" transform="translate(-1524.435 -886.17)" fill="#a6a8ab"/>
      <path id="Path_10001" data-name="Path 10001" d="M1561.016,917.151a2.754,2.754,0,0,0-.611,1.553c0,1.4,1.8,2.589,2.765,3.128a.625.625,0,0,0,.265.078,1.941,1.941,0,0,1-.1.443.632.632,0,0,1-.893.322c-.968-.538-2.765-1.727-2.765-3.128A3.8,3.8,0,0,1,1561.016,917.151Z" transform="translate(-1524.354 -890.121)" fill="#616068"/>
      <path id="Path_10002" data-name="Path 10002" d="M1526.757,1034.913c-2.1.316-5.394.395-7.5-1.447a44.331,44.331,0,0,1-8.282-10.384c-1.978-3.808-3.4-8.945-3.294-9.942s3.841-7.721,5-9.931,3.578-5.052,4.525-6.63.035-3.228-.2-3.771a1.247,1.247,0,0,1,0-1.006.682.682,0,0,1,.194.121,4.527,4.527,0,0,0,.641.509c.351.2,3.724,1.889,4.684,2.286a.729.729,0,0,1,.368.95c-.263.658-4.332,10.577-4.894,12.19a15.7,15.7,0,0,0,.421,11.4c2.28,5.017,2.184,6.481,5.736,7.928,2.318.944,5.374.381,7.744-.047a25.853,25.853,0,0,0,5.285-1.337c4.35,1.669,11.65,1.418,11.65,1.418a8.2,8.2,0,0,0,4.874,3.007h-.005l-1.115.289-11.072,2.255S1528.862,1034.6,1526.757,1034.913Z" transform="translate(-1485.301 -946.19)" fill="#594a42"/>
      <g id="Group_1047" data-name="Group 1047" transform="translate(22.375 47.806)">
        <path id="Path_10003" data-name="Path 10003" d="M1507.682,1020.476c.105-1,3.841-7.721,5-9.931s3.578-5.052,4.525-6.63a3.107,3.107,0,0,0,.326-2.347l.008.034,1.055.54a2.294,2.294,0,0,1,1.1,2.871c-1.329,3.433-3.96,10.576-4.222,13.97-.351,4.56,1.263,8.445,2.491,11.624s-2.338,6.4-2.339,6.4a38.118,38.118,0,0,1-4.646-6.587C1509,1026.61,1507.577,1021.472,1507.682,1020.476Z" transform="translate(-1507.677 -1001.331)" fill="#726658"/>
        <path id="Path_10004" data-name="Path 10004" d="M1547.031,1000.617l0,.018-.005-.017Z" transform="translate(-1537.234 -1000.617)" fill="#726658"/>
      </g>
      <path id="Path_10005" data-name="Path 10005" d="M1476.727,1098.024c-2.348-2.981-4.048-8.292-4.6-9.208-.63-1.048-4.488-2.633-4.5-2.639a17.71,17.71,0,0,1,5.032-.494l.008,0,1.963,1.561a8.109,8.109,0,0,1,1.921,2.913c.894,2.45,4.461,8.088,7.111,11.715h0a9.509,9.509,0,0,1-4.46-1.47c-.5-.455-.974-.879-1.406-1.247C1477.5,1098.808,1477.139,1098.422,1476.727,1098.024Z" transform="translate(-1455.219 -1016.69)" fill="#23afb7" opacity="0.5" style="mix-blend-mode: multiply;isolation: isolate"/>
      <path id="Path_10006" data-name="Path 10006" d="M1441.1,1094.407a17.383,17.383,0,0,0-1.719.82,18.6,18.6,0,0,0-1.638,1,14.469,14.469,0,0,0-1.526,1.221,10.23,10.23,0,0,0-1.329,1.522.731.731,0,1,0,1.251.749l.009-.018a8.924,8.924,0,0,1,.915-1.481,13.37,13.37,0,0,1,1.209-1.348,17.831,17.831,0,0,1,1.4-1.21,17.053,17.053,0,0,1,1.525-1.068l0,0a.105.105,0,0,0-.095-.187Z" transform="translate(-1430.527 -1023.248)" fill="#fff" style="mix-blend-mode: soft-light;isolation: isolate"/>
      <path id="Path_10007" data-name="Path 10007" d="M1704.4,1076.517a39.163,39.163,0,0,0-7.2-1.571,27.207,27.207,0,0,0-7.428.089,15.756,15.756,0,0,0-3.653,1,8.982,8.982,0,0,0-3.228,2.2,6.465,6.465,0,0,0-1.111,1.706,8.1,8.1,0,0,0-.581,1.924,11.18,11.18,0,0,0,.052,3.933.829.829,0,1,0,1.631-.3c0-.013-.005-.025-.008-.038v-.005a9.628,9.628,0,0,1-.214-3.368,5.773,5.773,0,0,1,1.213-3.006,7.786,7.786,0,0,1,2.7-2.028,14.762,14.762,0,0,1,3.367-1.1,26.469,26.469,0,0,1,7.2-.437,38.761,38.761,0,0,1,7.2,1.2.105.105,0,0,0,.058-.2Z" transform="translate(-1615.513 -1008.479)" fill="#fff" style="mix-blend-mode: soft-light;isolation: isolate"/>
      <path id="Path_10008" data-name="Path 10008" d="M1541.16,976.531c-.368,1.473-.526,2.052-2.368,1.21s-3.368-1.789-3.631-1.92a1.02,1.02,0,0,1-.421-.895c-.123-.693-2.473-.763-4-1.289l3.262-.732a9.9,9.9,0,0,1,3.034-2.591c1.585-.711,4.648-1.09,5.964.376C1543.475,971.164,1541.528,975.057,1541.16,976.531Z" transform="translate(-1502.624 -929.579)" fill="#23afb7" opacity="0.5" style="mix-blend-mode: multiply;isolation: isolate"/>
      <path id="Path_10009" data-name="Path 10009" d="M1567.583,972.608a1.483,1.483,0,1,0,1.483-1.483A1.483,1.483,0,0,0,1567.583,972.608Z" transform="translate(-1530.295 -930.66)" fill="#352826"/>
      <g id="Group_1048" data-name="Group 1048" transform="translate(33.29 42.242)">
        <path id="Path_10010" data-name="Path 10010" d="M1551.522,983.88a.44.44,0,1,0,.44-.44A.44.44,0,0,0,1551.522,983.88Z" transform="translate(-1551.522 -982.152)" fill="#e2e7ed"/>
        <path id="Path_10011" data-name="Path 10011" d="M1553.5,979.61a5.361,5.361,0,0,0,.541-.451c.079-.105-.3-.2-.27-.474s.613-.43,1.051-.421c.251.005.375.222.387.505a1.144,1.144,0,0,1-.456.932,3.116,3.116,0,0,1-1.465.73Z" transform="translate(-1552.849 -978.264)" fill="#d6d6d6"/>
      </g>
      <path id="Path_10012" data-name="Path 10012" d="M1571.655,973.2a1.091,1.091,0,0,1,.56.158l2.378.669v2.207l-2.938-.827a1.1,1.1,0,1,1,0-2.207Z" transform="translate(-1532.525 -932.221)" fill="#4c3a36"/>
      <path id="Path_10013" data-name="Path 10013" d="M1638.242,1056.095c-.174-.279-.354-.551-.539-.814a40.384,40.384,0,0,1,16.26-6.034c9.612-1.333,19.013-2.245,19.013-2.245l.68.594c-3.622.378-16.228,1.709-20.536,2.342C1643.741,1052.031,1639.612,1054.918,1638.242,1056.095Z" transform="translate(-1582.961 -987.649)" fill="#23afb7" opacity="0.5" style="mix-blend-mode: multiply;isolation: isolate"/>
      <path id="Path_10014" data-name="Path 10014" d="M1694,1064.911c-.375-.194-.761-.363-1.146-.537s-.777-.326-1.17-.481c-.784-.312-1.581-.591-2.386-.851a40.355,40.355,0,0,0-4.929-1.245,31.059,31.059,0,0,0-5.11-.541c-.216,0-.432-.01-.649-.009l-.652.019c-.434,0-.871.052-1.307.078a18.408,18.408,0,0,0-2.615.444c-.435.1-.862.249-1.291.386-.214.071-.423.167-.634.25a5.684,5.684,0,0,0-.625.28l-.612.317-.587.372c-.1.065-.2.12-.29.193l-.276.215c-.18.145-.378.285-.536.439a13.789,13.789,0,0,0-1.817,1.973c-.131.183-.268.361-.392.549l-.361.572-.321.6c-.1.2-.192.409-.287.612a10.62,10.62,0,0,0-.825,5.222,11.329,11.329,0,0,0,.53,2.539,9.947,9.947,0,0,0,1.082,2.307,13.642,13.642,0,0,1-.578-4.863,10.607,10.607,0,0,1,1.28-4.483,12.133,12.133,0,0,1,2.99-3.51,2.1,2.1,0,0,1,.224-.172l.224-.163.222-.164c.073-.056.159-.1.237-.146l.479-.285.509-.243a4.707,4.707,0,0,1,.521-.225c.178-.067.35-.146.533-.2.368-.112.73-.24,1.112-.321a21.182,21.182,0,0,1,4.714-.581,42.1,42.1,0,0,1,4.88.183c1.636.141,3.275.362,4.917.613S1692.35,1064.59,1694,1064.911Z" transform="translate(-1603.568 -998.348)" fill="#23afb7" opacity="0.5" style="mix-blend-mode: multiply;isolation: isolate"/>
      <path id="Path_10015" data-name="Path 10015" d="M1570.585,1138.708l1.143-1.289a.89.89,0,0,1,.558-.293l12.3-1.5a.884.884,0,0,1,.519.1c2.631,1.39,7.223,1.042,8.848.864a.894.894,0,0,1,.817.364l.022.03a.886.886,0,0,1-.584,1.4l-22.376,3.465a.891.891,0,0,1-1-.652l-.444-1.675A.891.891,0,0,1,1570.585,1138.708Z" transform="translate(-1532.381 -1054.209)" fill="#594a42" opacity="0.3" style="mix-blend-mode: multiply;isolation: isolate"/>
      <g id="Group_1049" data-name="Group 1049" transform="translate(93.105 62.005)">
        <path id="Path_10016" data-name="Path 10016" d="M1800.327,1065.976a.526.526,0,0,0,.354-.915l-7.983-7.269a.526.526,0,1,0-.708.778l7.983,7.269A.523.523,0,0,0,1800.327,1065.976Z" transform="translate(-1791.818 -1057.655)" fill="#d6d6d6"/>
      </g>
      <path id="Path_10017" data-name="Path 10017" d="M1606.2,1126.1l.421,3.657-2.868.158-.568-3.552Z" transform="translate(-1557.038 -1047.059)" fill="#ffcfae"/>
      <path id="Path_10018" data-name="Path 10018" d="M1616.515,1005.153s.61,3.835.239,5.13-1.658,3.207-5.977,3.083c-3.128-.089-11.154,1.106-15.344,1.773a2.953,2.953,0,0,0-2.485,3.084c.22,3.9,1.186,14.163,1.344,18.009l-4.772.494s-2.939-18.057-3.033-19.881c-.183-3.558,1.823-7.673,13.238-9.812,4.2-.823,3.53-1.881,3.53-1.881Z" transform="translate(-1544.486 -956.218)" fill="#053142"/>
      <path id="Path_10019" data-name="Path 10019" d="M1581.629,1149.144l3.106,1.026-9.44,1.444-3.037-1.049Z" transform="translate(-1533.806 -1064.365)" fill="#594a42"/>
      <path id="Path_10020" data-name="Path 10020" d="M1591.426,1133.894a3.167,3.167,0,0,1-3.8.3s-.084,1.552-2.49,1.737-2.825,1.131-2.434,2.447l.224.736,9.372-1.421Z" transform="translate(-1541.558 -1052.912)" fill="#021e26"/>
      <path id="Path_10021" data-name="Path 10021" d="M1612.276,1143.694c-.491-2.127,1.837-2.266,1.837-2.266h0l.443,1.921-2.28.346Z" transform="translate(-1563.812 -1058.57)" fill="#053142"/>
      <rect id="Rectangle_3730" data-name="Rectangle 3730" width="27.245" height="1.965" transform="translate(101.767 34.236) rotate(180)" fill="#686000"/>
      <path id="Path_10022" data-name="Path 10022" d="M1597.914,1035.509l3.969-.474a123.883,123.883,0,0,0-.938-12.653c-.867-6.8-.536-7.443,1.639-8.852s17.26-3.221,19.294-3.713c1.366-.33,1.182-2.967.914-4.666h2.313s.61,3.835.24,5.13-1.658,3.207-5.977,3.083c-3.127-.089-11.154,1.106-15.344,1.773a2.952,2.952,0,0,0-2.485,3.084c.22,3.9,1.186,14.163,1.344,18.009l-4.771.494s-.073-.451-.2-1.217Z" transform="translate(-1553.076 -956.218)" fill="#04507d" opacity="0.5" style="mix-blend-mode: multiply;isolation: isolate"/>
      <path id="Path_10023" data-name="Path 10023" d="M1652.347,888.573s2.242,1.792,4.045,6.73c1.845,5.05,2.114,13.722,5.352,22.408-1.974,1.816-9.962,1.438-11.794,1.22a2.022,2.022,0,0,1-.548-.145l-2.642-1.116a1.245,1.245,0,0,1-.749-.977c-.532-3.863-3-22.356-1.561-22.356C1646.188,892.363,1652.347,888.573,1652.347,888.573Z" transform="translate(-1587.694 -868.657)" fill="url(#linear-gradient-2)"/>
      <g id="Group_1050" data-name="Group 1050" transform="translate(62.605 19.916)">
        <path id="Path_10024" data-name="Path 10024" d="M1675.382,895.3c1.845,5.05,2.114,13.722,5.352,22.408-1.277,1.174-5.066,1.431-8.082,1.407,2.713-.053,5.4-2.434,5.4-2.434s.632-.158,0-3.632c-3.948-25.663-8.761-23-8.761-23l2.049-1.481S1673.578,890.365,1675.382,895.3Z" transform="translate(-1669.288 -888.573)" fill="url(#linear-gradient-2)"/>
        <path id="Path_10025" data-name="Path 10025" d="M1680.352,1011.241l-.392-.007c.1,0,.225,0,.392.007Z" transform="translate(-1677.303 -980.7)" fill="#d31c29"/>
      </g>
      <path id="Path_10026" data-name="Path 10026" d="M1573.123,929.009a10.008,10.008,0,0,1,1.274-2.69.69.69,0,0,1,.574-.3h3.54l12.26.039,3.1-10.549a3.238,3.238,0,0,1,.237-.371c.79-1.878,2.271-4.24,3.57-3.237,1.216.939,2.293,3.568,1.412,4.826l-5.544,12.168-.133.189a1.725,1.725,0,0,1-1.571.729l-13.332-1.22v.005s-1.537.4-1.725,0-1.136-.254-1.136.348.976.668.976,1.27c0,1.631-1.845,1.444-2.246,1.043S1572.882,929.7,1573.123,929.009Z" transform="translate(-1534.431 -885.995)" fill="#ffcfae"/>
      <path id="Path_10027" data-name="Path 10027" d="M1650.049,883.815s1.264,1.027,1.5,1.184-8.607,5.449-8.607,6.791l.079-2.764A24.244,24.244,0,0,1,1650.049,883.815Z" transform="translate(-1586.896 -865.083)" fill="#0ac6a7"/>
      <path id="Path_10028" data-name="Path 10028" d="M1656.553,916.746s1.816-8.923.553-10.739-3.79-2.29-4.738-.237c-1.263,2.053-2.764,9.081-2.764,9.081Z" transform="translate(-1591.899 -880.563)" fill="#0a5081"/>
      <circle id="Ellipse_63" data-name="Ellipse 63" cx="1.103" cy="1.103" r="1.103" transform="translate(40.965 41.81)" fill="#5b4a48"/>
      <path id="Path_10029" data-name="Path 10029" d="M1831.634,1155.146" transform="translate(-1728.617 -1068.873)" fill="#a6a8ab"/>
      <path id="Path_10030" data-name="Path 10030" d="M1515.2,993.58a4.467,4.467,0,0,1-.472-1.9.676.676,0,0,1,.8.079l.059.052a3.409,3.409,0,0,0,.321,1.305c.622.956.981,2.5-1.777,5.964-2.615,3.285-7.623,13.311-7.836,14.253a38.45,38.45,0,0,0,5.271,12.374c2.186,2.862,4.127,5.258,5.067,6.253a8.562,8.562,0,0,0,5.567,2.551,20.338,20.338,0,0,0,5.164-.471c.634-.112,1.289-.229,1.935-.321l1.072-.15c.607-.084,1.213-.169,1.819-.258q3.489-.516,6.978-1.028l.2-.029a.421.421,0,0,1,.121.833l-.2.029q-3.489.512-6.976,1.028c-.608.09-1.217.175-1.826.259l-1.07.15c-.632.09-1.279.2-1.906.316a25.342,25.342,0,0,1-4.422.52c-.319,0-.639-.012-.959-.039a9.4,9.4,0,0,1-6.109-2.812c-.96-1.016-2.927-3.442-5.133-6.331l-.016-.022a40.557,40.557,0,0,1-4.087-8.219,22.021,22.021,0,0,1-1.332-4.671c.025-.881,5.412-11.463,8.019-14.738C1516.2,995.125,1515.47,994,1515.2,993.58Z" transform="translate(-1483.626 -946.03)" fill="#d6d6d6"/>
      <g id="Group_1051" data-name="Group 1051" transform="translate(45.032 0)">
        <path id="Path_10031" data-name="Path 10031" d="M1612.332,833.833s-1.263,13.029,8.686,9.95l1.184,2.369,4.027-2.606-.584-1.464-3.206-12.828Z" transform="translate(-1608.898 -824.103)" fill="#f8c2a2"/>
        <path id="Path_10032" data-name="Path 10032" d="M1638.146,881.079l-1.252,1.423a2.942,2.942,0,0,1-2.487.544c-1.641-.588-.805-.492-.805-.492a8.111,8.111,0,0,0,2.2-.125,1.138,1.138,0,0,0,.589-.378,5.671,5.671,0,0,0,.848-1.46l.974-.265Z" transform="translate(-1624.752 -862.463)" fill="#282828"/>
        <path id="Path_10033" data-name="Path 10033" d="M1608.817,841.321l-6.026,1.23-4.1,1.105a9.03,9.03,0,0,1,2.469-4.7c2.058-1.956,7.536-2.095,7.536-2.095l.729.237Z" transform="translate(-1598.693 -829.821)" fill="#d6d6d6"/>
        <path id="Path_10034" data-name="Path 10034" d="M1613.488,816.765a.387.387,0,0,0-.372-.523c-1.953-.044-5.956,1.874-6.685,2.053-.15-4.342,1.262-9.678,9.275-9.73a17.963,17.963,0,0,1,2.634.351s7.2,1.956,6.872,10.715a8.919,8.919,0,0,1-5.226,7.538h0a1.143,1.143,0,0,1-.324.128c-.089.009-.2.018-.332.025-.078,0-.163.006-.252.007-.119,0-.246,0-.377-.01l-.1-.007c-.067-.005-.135-.012-.2-.021a3.851,3.851,0,0,1-.41-.073c-.068-.016-.135-.034-.2-.055s-.132-.044-.2-.069l-.095-.04a1.994,1.994,0,0,1-.182-.093,1.557,1.557,0,0,1-.457-.392,17.55,17.55,0,0,1-2.233-4.055S1612.814,819.127,1613.488,816.765Z" transform="translate(-1604.497 -808.566)" fill="url(#linear-gradient-2)"/>
        <circle id="Ellipse_64" data-name="Ellipse 64" cx="1.895" cy="1.895" r="1.895" transform="translate(12.578 11.084)" fill="#9098b1"/>
      </g>
    </g>
  </g>
</svg>
