<svg width="22" height="24" viewBox="0 0 22 24" fill="none" xmlns="http://www.w3.org/2000/svg">
<path d="M20.793 23C20.7939 21.7001 20.5399 20.4126 20.043 19.2114C19.5461 18.0102 18.8174 16.9187 17.8984 15.9993C16.9795 15.0798 15.8885 14.3506 14.6875 13.8531C13.4865 13.3557 12.1984 13.0997 10.8984 13.1C8.27279 13.1 5.75505 14.143 3.89844 15.9996C2.04183 17.8562 1 20.3744 1 23H20.793Z" fill="#666666" stroke="#F2F2F2" stroke-width="2"/>
<path d="M17.5533 7.617C17.5533 8.92572 17.1651 10.2051 16.438 11.2932C15.7109 12.3814 14.6784 13.2295 13.4693 13.7303C12.2602 14.2311 10.9286 14.3622 9.64505 14.1069C8.36147 13.8516 7.18373 13.2213 6.25833 12.2959C5.33292 11.3705 4.70115 10.1915 4.44583 8.9079C4.19051 7.62433 4.32196 6.29388 4.82278 5.08478C5.32361 3.87568 6.17212 2.84226 7.26028 2.11517C8.34844 1.38809 9.62734 1 10.9361 1C11.8051 0.999869 12.6664 1.17093 13.4693 1.50342C14.2721 1.83591 15.0013 2.32327 15.6158 2.93774C16.2302 3.55222 16.7169 4.28172 17.0493 5.08459C17.3818 5.88747 17.5534 6.74801 17.5533 7.617Z" fill="#666666" stroke="#F2F2F2" stroke-width="2"/>
</svg>
